<?xml version="1.0" encoding="UTF-8" standalone="no"?>
<!-- Created with Inkscape (http://www.inkscape.org/) -->

<svg
   width="8.5in"
   height="11in"
   viewBox="0 0 215.9 279.4"
   version="1.1"
   id="svg1"
   inkscape:version="1.4.2 (ebf0e940d0, 2025-05-08)"
   sodipodi:docname="waveshare_rp2350b_core_breakout_pin_labels.svg"
   xmlns:inkscape="http://www.inkscape.org/namespaces/inkscape"
   xmlns:sodipodi="http://sodipodi.sourceforge.net/DTD/sodipodi-0.dtd"
   xmlns:xlink="http://www.w3.org/1999/xlink"
   xmlns="http://www.w3.org/2000/svg"
   xmlns:svg="http://www.w3.org/2000/svg">
  <sodipodi:namedview
     id="namedview1"
     pagecolor="#ffffff"
     bordercolor="#000000"
     borderopacity="0.25"
     inkscape:showpageshadow="2"
     inkscape:pageopacity="0.0"
     inkscape:pagecheckerboard="0"
     inkscape:deskcolor="#d1d1d1"
     inkscape:document-units="in"
     showguides="true"
     showgrid="true"
     inkscape:zoom="5.0819381"
     inkscape:cx="123.67329"
     inkscape:cy="216.15769"
     inkscape:window-width="2494"
     inkscape:window-height="1531"
     inkscape:window-x="0"
     inkscape:window-y="0"
     inkscape:window-maximized="1"
     inkscape:current-layer="layer1">
    <inkscape:grid
       id="grid125"
       units="in"
       originx="0"
       originy="0"
       spacingx="2.54"
       spacingy="2.54"
       empcolor="#0099e5"
       empopacity="0.30196078"
       color="#0099e5"
       opacity="0.14901961"
       empspacing="10"
       enabled="true"
       visible="true" />
  </sodipodi:namedview>
  <defs
     id="defs1">
    <filter
       inkscape:label="Blend Opposites"
       inkscape:menu="Color"
       inkscape:menu-tooltip="Blend an image with its hue opposite"
       style="color-interpolation-filters:sRGB"
       id="filter118"
       x="0"
       y="0"
       width="1"
       height="1">
      <feColorMatrix
         type="luminanceToAlpha"
         result="result2"
         id="feColorMatrix117" />
      <feComposite
         in2="SourceGraphic"
         operator="arithmetic"
         in="result2"
         k3="2"
         result="result4"
         id="feComposite117"
         k1="0"
         k2="0"
         k4="0" />
      <feBlend
         in="result4"
         mode="multiply"
         result="result3"
         in2="result2"
         id="feBlend117" />
      <feComposite
         in2="SourceGraphic"
         operator="in"
         in="result3"
         id="feComposite118"
         result="fbSourceGraphic" />
      <feColorMatrix
         result="fbSourceGraphicAlpha"
         in="fbSourceGraphic"
         values="0 0 0 -1 0 0 0 0 -1 0 0 0 0 -1 0 0 0 0 1 0"
         id="feColorMatrix118" />
      <feColorMatrix
         id="feColorMatrix119"
         type="hueRotate"
         values="180"
         result="fbSourceGraphic"
         in="fbSourceGraphic" />
      <feColorMatrix
         id="feColorMatrix120"
         values="1 0 0 0 0 0 1 0 0 0 0 0 1 0 0 -0.2125 -0.7154 -0.0721 1 0 "
         in="fbSourceGraphic"
         result="result1" />
      <feColorMatrix
         id="feColorMatrix121"
         type="hueRotate"
         values="0" />
      <feColorMatrix
         id="feColorMatrix122"
         values="1 0 0 0 0 0 1 0 0 0 0 0 1 0 0 0 0 0 1 0 "
         result="result3" />
      <feComposite
         id="feComposite122"
         in2="result3"
         result="result6"
         operator="atop" />
      <feComposite
         id="feComposite123"
         in2="result6"
         operator="arithmetic"
         k2="0.5"
         k1="0.5"
         k3="0.5"
         in="result6"
         result="result4"
         k4="0" />
      <feBlend
         id="feBlend123"
         in2="fbSourceGraphic"
         mode="normal"
         result="result2"
         in="result4" />
      <feComposite
         id="feComposite124"
         in2="result2"
         operator="arithmetic"
         k2="1"
         result="result5"
         k1="0"
         k3="0"
         k4="0" />
      <feComposite
         id="feComposite125"
         in2="fbSourceGraphic"
         operator="in"
         result="result5" />
    </filter>
  </defs>
  <g
     inkscape:label="Layer 1"
     inkscape:groupmode="layer"
     id="layer1">
    <text
       xml:space="preserve"
       style="font-size:2.09972px;text-align:start;writing-mode:lr-tb;direction:ltr;text-anchor:start;fill:#000000;stroke-width:0.174977"
       x="26.946943"
       y="28.32176"
       id="text1"
       transform="scale(1.0338076,0.96729796)"><tspan
         sodipodi:role="line"
         id="tspan1"
         style="stroke-width:0.174977"
         x="26.946943"
         y="28.32176">GP0</tspan><tspan
         sodipodi:role="line"
         style="stroke-width:0.174977"
         x="26.946943"
         y="30.946411"
         id="tspan2">GND</tspan><tspan
         sodipodi:role="line"
         style="stroke-width:0.174977"
         x="26.946943"
         y="33.57106"
         id="tspan3">GP1</tspan><tspan
         sodipodi:role="line"
         style="stroke-width:0.174977"
         x="26.946943"
         y="36.195709"
         id="tspan4">GP2</tspan><tspan
         sodipodi:role="line"
         style="stroke-width:0.174977"
         x="26.946943"
         y="38.820358"
         id="tspan5">GP3</tspan><tspan
         sodipodi:role="line"
         style="stroke-width:0.174977"
         x="26.946943"
         y="41.445011"
         id="tspan6">GP4</tspan><tspan
         sodipodi:role="line"
         style="stroke-width:0.174977"
         x="26.946943"
         y="44.06966"
         id="tspan7">GP5</tspan><tspan
         sodipodi:role="line"
         style="stroke-width:0.174977"
         x="26.946943"
         y="46.694309"
         id="tspan8">GP6</tspan><tspan
         sodipodi:role="line"
         style="stroke-width:0.174977"
         x="26.946943"
         y="49.318958"
         id="tspan9">GP7</tspan><tspan
         sodipodi:role="line"
         style="stroke-width:0.174977"
         x="26.946943"
         y="51.943611"
         id="tspan10">GP8</tspan><tspan
         sodipodi:role="line"
         style="stroke-width:0.174977"
         x="26.946943"
         y="54.56826"
         id="tspan11">GP9</tspan><tspan
         sodipodi:role="line"
         style="stroke-width:0.174977"
         x="26.946943"
         y="57.192909"
         id="tspan12">GP10</tspan><tspan
         sodipodi:role="line"
         style="stroke-width:0.174977"
         x="26.946943"
         y="59.817562"
         id="tspan13">GP11</tspan><tspan
         sodipodi:role="line"
         style="stroke-width:0.174977"
         x="26.946943"
         y="62.442211"
         id="tspan14">GP12</tspan><tspan
         sodipodi:role="line"
         style="stroke-width:0.174977"
         x="26.946943"
         y="65.066856"
         id="tspan15">GP13</tspan><tspan
         sodipodi:role="line"
         style="stroke-width:0.174977"
         x="26.946943"
         y="67.691505"
         id="tspan16">GP14</tspan><tspan
         sodipodi:role="line"
         style="stroke-width:0.174977"
         x="26.946943"
         y="70.316154"
         id="tspan17">GP15</tspan><tspan
         sodipodi:role="line"
         style="stroke-width:0.174977"
         x="26.946943"
         y="72.940804"
         id="tspan18">GP16</tspan><tspan
         sodipodi:role="line"
         style="stroke-width:0.174977"
         x="26.946943"
         y="75.565453"
         id="tspan19">GND</tspan><tspan
         sodipodi:role="line"
         style="stroke-width:0.174977"
         x="26.946943"
         y="78.190109"
         id="tspan20">GP17</tspan><tspan
         sodipodi:role="line"
         style="stroke-width:0.174977"
         x="26.946943"
         y="80.814758"
         id="tspan21">GP18</tspan><tspan
         sodipodi:role="line"
         style="stroke-width:0.174977"
         x="26.946943"
         y="83.439407"
         id="tspan22">GP19</tspan><tspan
         sodipodi:role="line"
         style="stroke-width:0.174977"
         x="26.946943"
         y="86.064056"
         id="tspan23">GP20</tspan><tspan
         sodipodi:role="line"
         style="stroke-width:0.174977"
         x="26.946943"
         y="88.688705"
         id="tspan24">GP21</tspan><tspan
         sodipodi:role="line"
         style="stroke-width:0.174977"
         x="26.946943"
         y="91.313354"
         id="tspan25">GP22</tspan><tspan
         sodipodi:role="line"
         style="stroke-width:0.174977"
         x="26.946943"
         y="93.938004"
         id="tspan26">GP23</tspan><tspan
         sodipodi:role="line"
         style="stroke-width:0.174977"
         x="26.946943"
         y="96.56266"
         id="tspan27">GP24</tspan><tspan
         sodipodi:role="line"
         style="stroke-width:0.174977"
         x="26.946943"
         y="99.187309"
         id="tspan28">GP25</tspan><tspan
         sodipodi:role="line"
         style="stroke-width:0.174977"
         x="26.946943"
         y="101.81196"
         id="tspan29">GP26</tspan><tspan
         sodipodi:role="line"
         style="stroke-width:0.174977"
         x="26.946943"
         y="104.43661"
         id="tspan30">GP27</tspan><tspan
         sodipodi:role="line"
         style="stroke-width:0.174977"
         x="26.946943"
         y="107.06126"
         id="tspan31">GP28</tspan><tspan
         sodipodi:role="line"
         style="stroke-width:0.174977"
         x="26.946943"
         y="109.68591"
         id="tspan32">GP29</tspan></text>
    <g
       id="text33"
       style="font-size:1.85982px;stroke-width:0.154984"
       transform="matrix(0.90345768,0,0,1.0936545,-4.0305846,6.5526982)"
       aria-label="VBUS&#10;3V3&#10;3V3 EN&#10;GND&#10;RUN&#10;ADC VREF&#10;USB DP&#10;SWCLK&#10;USB DM&#10;GND&#10;BOOTSEL&#10;SWDIO&#10;GP47&#10;GND&#10;GP46&#10;GP45&#10;GP44&#10;GP43&#10;GP42&#10;GP41&#10;GP40&#10;GP39&#10;GP38&#10;GP37&#10;GP36&#10;GP35&#10;GP34&#10;GP33&#10;GP32&#10;GND&#10;GP31&#10;GP30">
      <path
         id="path95"
         d="m 61.547615,90.543982 h 0.459376 v 0.650937 q -0.10787,0.03534 -0.217599,0.05208 -0.10973,0.01674 -0.249216,0.01674 -0.20644,0 -0.347786,-0.08183 -0.141347,-0.08369 -0.21574,-0.236197 -0.07253,-0.154365 -0.07253,-0.364525 0,-0.208299 0.08183,-0.360805 0.08183,-0.152505 0.234337,-0.236197 0.154365,-0.08555 0.371964,-0.08555 0.111589,0 0.21016,0.02046 0.10043,0.02046 0.185982,0.05765 l -0.06323,0.145066 q -0.07067,-0.03162 -0.159945,-0.05393 -0.08741,-0.02232 -0.182262,-0.02232 -0.238057,0 -0.371964,0.143206 -0.132047,0.143206 -0.132047,0.392422 0,0.158085 0.05022,0.280833 0.05207,0.120888 0.161804,0.189702 0.109729,0.06695 0.288272,0.06695 0.08741,0 0.148786,-0.0093 0.06137,-0.0093 0.111589,-0.02232 v -0.394281 h -0.291992 z m 1.128912,-0.626759 q 0.260375,0 0.379403,0.10229 0.119029,0.10229 0.119029,0.288272 0,0.109729 -0.05022,0.20644 -0.04836,0.09485 -0.165524,0.154365 -0.115309,0.05951 -0.31431,0.05951 H 62.4924 v 0.51703 h -0.167384 v -1.327911 z m -0.01488,0.143206 h -0.169244 v 0.524469 h 0.133907 q 0.189702,0 0.282693,-0.06137 0.09299,-0.06137 0.09299,-0.2083 0,-0.128327 -0.08183,-0.191561 -0.08183,-0.06323 -0.258515,-0.06323 z m 1.525051,0.167384 q 0,0.133907 -0.07439,0.213879 -0.07439,0.07811 -0.20086,0.10415 v 0.0074 q 0.159944,0.0186 0.238057,0.10043 0.07811,0.08183 0.07811,0.21388 0,0.115308 -0.05393,0.20644 -0.05393,0.08927 -0.167384,0.139486 -0.111589,0.05022 -0.288272,0.05022 -0.10415,0 -0.193421,-0.01674 -0.08927,-0.01488 -0.171103,-0.0558 v -0.152505 q 0.08369,0.04092 0.180402,0.06509 0.09671,0.02232 0.185982,0.02232 0.178543,0 0.256655,-0.06881 0.07997,-0.07067 0.07997,-0.193421 0,-0.124608 -0.09857,-0.178543 -0.09671,-0.05579 -0.273393,-0.05579 h -0.128328 v -0.139487 h 0.130187 q 0.163665,0 0.247357,-0.06881 0.08555,-0.06881 0.08555,-0.182263 0,-0.09671 -0.06509,-0.148785 -0.06509,-0.05394 -0.176683,-0.05394 -0.10787,0 -0.184123,0.03162 -0.07625,0.03162 -0.150645,0.07997 l -0.08183,-0.111589 q 0.07067,-0.05579 0.174823,-0.09671 0.10601,-0.04092 0.239917,-0.04092 0.2083,0 0.30873,0.09299 0.10229,0.09299 0.10229,0.236198 z m 1.119613,0.351506 q 0,0.213879 -0.04464,0.368244 -0.04464,0.152505 -0.141346,0.234337 -0.09671,0.08183 -0.256656,0.08183 -0.225038,0 -0.332907,-0.180402 -0.10601,-0.182263 -0.10601,-0.504011 0,-0.21574 0.04278,-0.368245 0.04463,-0.152505 0.141346,-0.232477 0.09671,-0.08183 0.254795,-0.08183 0.223179,0 0.332908,0.180402 0.10973,0.178543 0.10973,0.502152 z m -0.717891,0 q 0,0.273393 0.06137,0.40916 0.06323,0.135767 0.213879,0.135767 0.148786,0 0.21202,-0.133907 0.06509,-0.135767 0.06509,-0.41102 0,-0.271534 -0.06509,-0.407301 -0.06323,-0.135767 -0.21202,-0.135767 -0.150645,0 -0.213879,0.135767 -0.06137,0.135767 -0.06137,0.407301 z m -3.040805,-2.360112 h 0.459376 v 0.650937 q -0.10787,0.03534 -0.217599,0.05208 -0.10973,0.01674 -0.249216,0.01674 -0.20644,0 -0.347786,-0.08183 -0.141347,-0.08369 -0.21574,-0.236197 -0.07253,-0.154365 -0.07253,-0.364525 0,-0.2083 0.08183,-0.360805 0.08183,-0.152505 0.234337,-0.236197 0.154365,-0.08555 0.371964,-0.08555 0.111589,0 0.21016,0.02046 0.10043,0.02046 0.185982,0.05765 l -0.06323,0.145066 q -0.07067,-0.03162 -0.159945,-0.05393 -0.08741,-0.02232 -0.182262,-0.02232 -0.238057,0 -0.371964,0.143206 -0.132047,0.143206 -0.132047,0.392422 0,0.158085 0.05022,0.280833 0.05207,0.120888 0.161804,0.189702 0.109729,0.06695 0.288272,0.06695 0.08741,0 0.148786,-0.0093 0.06137,-0.0093 0.111589,-0.02232 v -0.394281 h -0.291992 z m 1.128912,-0.626759 q 0.260375,0 0.379403,0.10229 0.119029,0.10229 0.119029,0.288272 0,0.109729 -0.05022,0.20644 -0.04836,0.09485 -0.165524,0.154365 -0.115309,0.05951 -0.31431,0.05951 H 62.4924 v 0.51703 h -0.167384 v -1.327911 z m -0.01488,0.143206 h -0.169244 v 0.524469 h 0.133907 q 0.189702,0 0.282693,-0.06137 0.09299,-0.06137 0.09299,-0.2083 0,-0.128328 -0.08183,-0.191561 -0.08183,-0.06323 -0.258515,-0.06323 z m 1.525051,0.167384 q 0,0.133907 -0.07439,0.213879 -0.07439,0.07811 -0.20086,0.10415 v 0.0074 q 0.159944,0.0186 0.238057,0.10043 0.07811,0.08183 0.07811,0.21388 0,0.115308 -0.05393,0.20644 -0.05393,0.08927 -0.167384,0.139486 -0.111589,0.05022 -0.288272,0.05022 -0.10415,0 -0.193421,-0.01674 -0.08927,-0.01488 -0.171103,-0.0558 v -0.152505 q 0.08369,0.04092 0.180402,0.06509 0.09671,0.02232 0.185982,0.02232 0.178543,0 0.256655,-0.06881 0.07997,-0.07067 0.07997,-0.193421 0,-0.124608 -0.09857,-0.178543 -0.09671,-0.05579 -0.273393,-0.05579 h -0.128328 v -0.139487 h 0.130187 q 0.163665,0 0.247357,-0.06881 0.08555,-0.06881 0.08555,-0.182263 0,-0.09671 -0.06509,-0.148785 -0.06509,-0.05393 -0.176683,-0.05393 -0.10787,0 -0.184123,0.03162 -0.07625,0.03162 -0.150645,0.07997 l -0.08183,-0.111589 q 0.07067,-0.0558 0.174823,-0.09671 0.10601,-0.04092 0.239917,-0.04092 0.2083,0 0.30873,0.09299 0.10229,0.09299 0.10229,0.236198 z m 0.807163,1.017321 h -0.159945 v -0.92805 q 0,-0.07997 0.0019,-0.128328 0.0019,-0.04836 0.0056,-0.10043 -0.02976,0.02976 -0.05393,0.05021 -0.02418,0.02046 -0.06137,0.05208 l -0.141347,0.115309 -0.08555,-0.109729 0.358945,-0.278973 h 0.135767 z m -3.446246,-3.025927 h 0.459376 v 0.650937 q -0.10787,0.03534 -0.217599,0.05208 -0.10973,0.01674 -0.249216,0.01674 -0.20644,0 -0.347786,-0.08183 -0.141347,-0.08369 -0.21574,-0.236197 -0.07253,-0.154365 -0.07253,-0.364525 0,-0.2083 0.08183,-0.360805 0.08183,-0.152505 0.234337,-0.236197 0.154365,-0.08555 0.371964,-0.08555 0.111589,0 0.21016,0.02046 0.10043,0.02046 0.185982,0.05765 l -0.06323,0.145066 q -0.07067,-0.03162 -0.159945,-0.05393 -0.08741,-0.02232 -0.182262,-0.02232 -0.238057,0 -0.371964,0.143206 -0.132047,0.143206 -0.132047,0.392422 0,0.158085 0.05022,0.280833 0.05207,0.120888 0.161804,0.189702 0.109729,0.06695 0.288272,0.06695 0.08741,0 0.148786,-0.0093 0.06137,-0.0093 0.111589,-0.02232 v -0.394281 h -0.291992 z m 1.830064,0.701152 h -0.195281 l -0.710451,-1.102873 h -0.0074 q 0.0037,0.06509 0.0093,0.161804 0.0056,0.09671 0.0056,0.199001 v 0.742068 h -0.154365 v -1.327911 h 0.193421 l 0.708592,1.099153 h 0.0074 q -0.0019,-0.02976 -0.0056,-0.08927 -0.0019,-0.05951 -0.0056,-0.130188 -0.0019,-0.07067 -0.0019,-0.130187 v -0.749507 h 0.156225 z m 1.424623,-0.676974 q 0,0.336627 -0.184122,0.50773 -0.182263,0.169244 -0.509591,0.169244 h -0.370104 v -1.327911 h 0.40916 q 0.200861,0 0.347786,0.07439 0.146926,0.07439 0.226898,0.219459 0.07997,0.143206 0.07997,0.357086 z m -0.176683,0.0056 q 0,-0.265954 -0.132047,-0.388702 Q 64.363384,85.4109 64.123467,85.4109 h -0.217599 v 1.041499 h 0.180403 q 0.539348,0 0.539348,-0.528189 z m -3.078004,-2.354553 h 0.459376 v 0.650937 q -0.10787,0.03534 -0.217599,0.05207 -0.10973,0.01674 -0.249216,0.01674 -0.20644,0 -0.347786,-0.08183 -0.141347,-0.08369 -0.21574,-0.236197 -0.07253,-0.154365 -0.07253,-0.364525 0,-0.2083 0.08183,-0.360805 0.08183,-0.152505 0.234337,-0.236197 0.154365,-0.08555 0.371964,-0.08555 0.111589,0 0.21016,0.02046 0.10043,0.02046 0.185982,0.05766 l -0.06323,0.145066 q -0.07067,-0.03162 -0.159945,-0.05394 -0.08741,-0.02232 -0.182262,-0.02232 -0.238057,0 -0.371964,0.143206 -0.132047,0.143206 -0.132047,0.392422 0,0.158085 0.05022,0.280833 0.05207,0.120888 0.161804,0.189702 0.109729,0.06695 0.288272,0.06695 0.08741,0 0.148786,-0.0093 0.06137,-0.0093 0.111589,-0.02232 v -0.394281 h -0.291992 z m 1.128912,-0.626759 q 0.260375,0 0.379403,0.10229 0.119029,0.10229 0.119029,0.288272 0,0.109729 -0.05022,0.20644 -0.04836,0.09485 -0.165524,0.154365 -0.115309,0.05951 -0.31431,0.05951 H 62.4924 v 0.51703 h -0.167384 v -1.327911 z m -0.01488,0.143206 h -0.169244 v 0.524469 h 0.133907 q 0.189702,0 0.282693,-0.06137 0.09299,-0.06137 0.09299,-0.2083 0,-0.128328 -0.08183,-0.191561 -0.08183,-0.06323 -0.258515,-0.06323 z m 1.525051,0.167384 q 0,0.133907 -0.07439,0.213879 -0.07439,0.07811 -0.20086,0.10415 v 0.0074 q 0.159944,0.0186 0.238057,0.10043 0.07811,0.08183 0.07811,0.21388 0,0.115308 -0.05393,0.20644 -0.05393,0.08927 -0.167384,0.139486 -0.111589,0.05021 -0.288272,0.05021 -0.10415,0 -0.193421,-0.01674 -0.08927,-0.01488 -0.171103,-0.05579 v -0.152505 q 0.08369,0.04092 0.180402,0.06509 0.09671,0.02232 0.185982,0.02232 0.178543,0 0.256655,-0.06881 0.07997,-0.07067 0.07997,-0.193421 0,-0.124608 -0.09857,-0.178543 -0.09671,-0.05579 -0.273393,-0.05579 h -0.128328 v -0.139487 h 0.130187 q 0.163665,0 0.247357,-0.06881 0.08555,-0.06881 0.08555,-0.182263 0,-0.09671 -0.06509,-0.148785 -0.06509,-0.05393 -0.176683,-0.05393 -0.10787,0 -0.184123,0.03162 -0.07625,0.03162 -0.150645,0.07997 L 63.360946,83.0619 q 0.07067,-0.0558 0.174823,-0.09671 0.10601,-0.04092 0.239917,-0.04092 0.2083,0 0.30873,0.09299 0.10229,0.09299 0.10229,0.236198 z m 1.114033,1.017321 h -0.877835 v -0.135767 l 0.347786,-0.351506 q 0.100431,-0.10043 0.169244,-0.178543 0.06881,-0.07811 0.10415,-0.152505 0.03534,-0.07625 0.03534,-0.165524 0,-0.109729 -0.06509,-0.165524 -0.06509,-0.05765 -0.169244,-0.05765 -0.09671,0 -0.171103,0.03348 -0.07253,0.03348 -0.148786,0.09299 l -0.08741,-0.10973 q 0.07811,-0.06509 0.178542,-0.109729 0.10229,-0.0465 0.228758,-0.0465 0.185982,0 0.293852,0.09485 0.107869,0.09299 0.107869,0.258515 0,0.10415 -0.04277,0.195281 -0.04278,0.09113 -0.119029,0.180403 -0.07625,0.08741 -0.178543,0.187842 l -0.277113,0.273393 v 0.0074 h 0.671395 z m -3.753116,-3.025927 h 0.459376 v 0.650937 q -0.10787,0.03534 -0.217599,0.05208 -0.10973,0.01674 -0.249216,0.01674 -0.20644,0 -0.347786,-0.08183 -0.141347,-0.08369 -0.21574,-0.236197 -0.07253,-0.154365 -0.07253,-0.364525 0,-0.2083 0.08183,-0.360805 0.08183,-0.152505 0.234337,-0.236197 0.154365,-0.08555 0.371964,-0.08555 0.111589,0 0.21016,0.02046 0.10043,0.02046 0.185982,0.05766 l -0.06323,0.145066 q -0.07067,-0.03162 -0.159945,-0.05394 -0.08741,-0.02232 -0.182262,-0.02232 -0.238057,0 -0.371964,0.143206 -0.132047,0.143206 -0.132047,0.392422 0,0.158085 0.05022,0.280833 0.05207,0.120888 0.161804,0.189702 0.109729,0.06695 0.288272,0.06695 0.08741,0 0.148786,-0.0093 0.06137,-0.0093 0.111589,-0.02232 v -0.394281 h -0.291992 z m 1.128912,-0.626759 q 0.260375,0 0.379403,0.10229 0.119029,0.10229 0.119029,0.288272 0,0.109729 -0.05022,0.20644 -0.04836,0.09485 -0.165524,0.154365 -0.115309,0.05951 -0.31431,0.05951 H 62.4924 v 0.51703 h -0.167384 v -1.327911 z m -0.01488,0.143206 h -0.169244 v 0.524469 h 0.133907 q 0.189702,0 0.282693,-0.06137 0.09299,-0.06137 0.09299,-0.2083 0,-0.128328 -0.08183,-0.191561 -0.08183,-0.06323 -0.258515,-0.06323 z m 1.525051,0.167383 q 0,0.133908 -0.07439,0.21388 -0.07439,0.07811 -0.20086,0.10415 v 0.0074 q 0.159944,0.0186 0.238057,0.10043 0.07811,0.08183 0.07811,0.21388 0,0.115308 -0.05393,0.20644 -0.05393,0.08927 -0.167384,0.139486 -0.111589,0.05021 -0.288272,0.05021 -0.10415,0 -0.193421,-0.01674 -0.08927,-0.01488 -0.171103,-0.0558 v -0.152505 q 0.08369,0.04092 0.180402,0.06509 0.09671,0.02232 0.185982,0.02232 0.178543,0 0.256655,-0.06881 0.07997,-0.07067 0.07997,-0.193421 0,-0.124608 -0.09857,-0.178543 -0.09671,-0.05579 -0.273393,-0.05579 h -0.128328 v -0.139487 h 0.130187 q 0.163665,0 0.247357,-0.06881 0.08555,-0.06881 0.08555,-0.182263 0,-0.09671 -0.06509,-0.148785 -0.06509,-0.05394 -0.176683,-0.05394 -0.10787,0 -0.184123,0.03162 -0.07625,0.03162 -0.150645,0.07997 l -0.08183,-0.111589 q 0.07067,-0.0558 0.174823,-0.09671 0.10601,-0.04092 0.239917,-0.04092 0.2083,0 0.30873,0.09299 0.10229,0.09299 0.10229,0.236197 z m 1.063818,0 q 0,0.133908 -0.07439,0.21388 -0.07439,0.07811 -0.20086,0.10415 v 0.0074 q 0.159944,0.0186 0.238057,0.10043 0.07811,0.08183 0.07811,0.21388 0,0.115308 -0.05393,0.20644 -0.05393,0.08927 -0.167384,0.139486 -0.111589,0.05021 -0.288272,0.05021 -0.10415,0 -0.193421,-0.01674 -0.08927,-0.01488 -0.171103,-0.0558 v -0.152505 q 0.08369,0.04092 0.180402,0.06509 0.09671,0.02232 0.185982,0.02232 0.178543,0 0.256655,-0.06881 0.07997,-0.07067 0.07997,-0.193421 0,-0.124608 -0.09857,-0.178543 -0.09671,-0.05579 -0.273393,-0.05579 h -0.128328 v -0.139487 h 0.130187 q 0.163665,0 0.247356,-0.06881 0.08555,-0.06881 0.08555,-0.182263 0,-0.09671 -0.06509,-0.148785 -0.06509,-0.05394 -0.176683,-0.05394 -0.10787,0 -0.184123,0.03162 -0.07625,0.03162 -0.150645,0.07997 l -0.08183,-0.111589 q 0.07067,-0.0558 0.174823,-0.09671 0.10601,-0.04092 0.239917,-0.04092 0.2083,0 0.30873,0.09299 0.10229,0.09299 0.10229,0.236197 z m -3.702901,-2.008605 h 0.459376 v 0.650937 q -0.10787,0.03534 -0.217599,0.05208 -0.10973,0.01674 -0.249216,0.01674 -0.20644,0 -0.347786,-0.08183 -0.141347,-0.08369 -0.21574,-0.236197 -0.07253,-0.154365 -0.07253,-0.364525 0,-0.2083 0.08183,-0.360805 0.08183,-0.152505 0.234337,-0.236197 0.154365,-0.08555 0.371964,-0.08555 0.111589,0 0.21016,0.02046 0.10043,0.02046 0.185982,0.05765 l -0.06323,0.145066 q -0.07067,-0.03162 -0.159945,-0.05393 -0.08741,-0.02232 -0.182262,-0.02232 -0.238057,0 -0.371964,0.143206 -0.132047,0.143206 -0.132047,0.392422 0,0.158085 0.05022,0.280833 0.05207,0.120888 0.161804,0.189702 0.109729,0.06695 0.288272,0.06695 0.08741,0 0.148786,-0.0093 0.06137,-0.0093 0.111589,-0.02232 v -0.394282 h -0.291992 z m 1.128912,-0.626759 q 0.260375,0 0.379403,0.10229 0.119029,0.10229 0.119029,0.288272 0,0.109729 -0.05022,0.20644 -0.04836,0.09485 -0.165524,0.154365 -0.115309,0.05951 -0.31431,0.05951 H 62.4924 v 0.51703 h -0.167384 v -1.327911 z m -0.01488,0.143206 h -0.169244 v 0.524469 h 0.133907 q 0.189702,0 0.282693,-0.06137 0.09299,-0.06137 0.09299,-0.2083 0,-0.128328 -0.08183,-0.191561 -0.08183,-0.06323 -0.258515,-0.06323 z m 1.525051,0.167383 q 0,0.133908 -0.07439,0.21388 -0.07439,0.07811 -0.20086,0.10415 v 0.0074 q 0.159944,0.0186 0.238057,0.10043 0.07811,0.08183 0.07811,0.21388 0,0.115308 -0.05393,0.20644 -0.05393,0.08927 -0.167384,0.139486 -0.111589,0.05022 -0.288272,0.05022 -0.10415,0 -0.193421,-0.01674 -0.08927,-0.01488 -0.171103,-0.0558 v -0.152505 q 0.08369,0.04092 0.180402,0.06509 0.09671,0.02232 0.185982,0.02232 0.178543,0 0.256655,-0.06881 0.07997,-0.07067 0.07997,-0.193421 0,-0.124608 -0.09857,-0.178543 -0.09671,-0.05579 -0.273393,-0.05579 h -0.128328 v -0.139487 h 0.130187 q 0.163665,0 0.247357,-0.06881 0.08555,-0.06881 0.08555,-0.182263 0,-0.09671 -0.06509,-0.148785 -0.06509,-0.05394 -0.176683,-0.05394 -0.10787,0 -0.184123,0.03162 -0.07625,0.03162 -0.150645,0.07997 l -0.08183,-0.111589 q 0.07067,-0.05579 0.174823,-0.09671 0.10601,-0.04092 0.239917,-0.04092 0.2083,0 0.30873,0.09299 0.10229,0.09299 0.10229,0.236197 z m 1.173547,0.716031 h -0.193421 v 0.301291 h -0.158085 v -0.301291 h -0.636058 v -0.139486 l 0.624899,-0.894574 h 0.169244 v 0.887134 h 0.193421 z m -0.351506,-0.565385 q 0,-0.09671 0.0037,-0.163664 0.0037,-0.06881 0.0056,-0.130188 h -0.0074 q -0.01488,0.03534 -0.0372,0.07625 -0.02232,0.04092 -0.04278,0.06881 l -0.398002,0.567245 h 0.476114 z m -3.461124,-2.159251 h 0.459376 v 0.650937 q -0.10787,0.03534 -0.217599,0.05208 -0.10973,0.01674 -0.249216,0.01674 -0.20644,0 -0.347786,-0.08183 -0.141347,-0.08369 -0.21574,-0.236197 -0.07253,-0.154365 -0.07253,-0.364525 0,-0.2083 0.08183,-0.360805 0.08183,-0.152505 0.234337,-0.236197 0.154365,-0.08555 0.371964,-0.08555 0.111589,0 0.21016,0.02046 0.10043,0.02046 0.185982,0.05765 l -0.06323,0.145066 q -0.07067,-0.03162 -0.159945,-0.05393 -0.08741,-0.02232 -0.182262,-0.02232 -0.238057,0 -0.371964,0.143206 -0.132047,0.143206 -0.132047,0.392422 0,0.158085 0.05022,0.280833 0.05207,0.120888 0.161804,0.189702 0.109729,0.06695 0.288272,0.06695 0.08741,0 0.148786,-0.0093 0.06137,-0.0093 0.111589,-0.02232 v -0.394282 h -0.291992 z m 1.128912,-0.626759 q 0.260375,0 0.379403,0.10229 0.119029,0.10229 0.119029,0.288272 0,0.109729 -0.05022,0.20644 -0.04836,0.09485 -0.165524,0.154365 -0.115309,0.05951 -0.31431,0.05951 H 62.4924 v 0.51703 h -0.167384 v -1.327911 z m -0.01488,0.143206 h -0.169244 v 0.524469 h 0.133907 q 0.189702,0 0.282693,-0.06137 0.09299,-0.06137 0.09299,-0.2083 0,-0.128328 -0.08183,-0.191561 -0.08183,-0.06323 -0.258515,-0.06323 z m 1.525051,0.167383 q 0,0.133908 -0.07439,0.21388 -0.07439,0.07811 -0.20086,0.10415 v 0.0074 q 0.159944,0.0186 0.238057,0.10043 0.07811,0.08183 0.07811,0.21388 0,0.115308 -0.05393,0.20644 -0.05393,0.08927 -0.167384,0.139486 -0.111589,0.05022 -0.288272,0.05022 -0.10415,0 -0.193421,-0.01674 -0.08927,-0.01488 -0.171103,-0.0558 v -0.152505 q 0.08369,0.04092 0.180402,0.06509 0.09671,0.02232 0.185982,0.02232 0.178543,0 0.256655,-0.06881 0.07997,-0.07067 0.07997,-0.193421 0,-0.124608 -0.09857,-0.178543 -0.09671,-0.05579 -0.273393,-0.05579 h -0.128328 v -0.139487 h 0.130187 q 0.163665,0 0.247357,-0.06881 0.08555,-0.06881 0.08555,-0.182263 0,-0.09671 -0.06509,-0.148785 -0.06509,-0.05393 -0.176683,-0.05393 -0.10787,0 -0.184123,0.03162 -0.07625,0.03162 -0.150645,0.07997 l -0.08183,-0.111589 q 0.07067,-0.0558 0.174823,-0.09671 0.10601,-0.04092 0.239917,-0.04092 0.2083,0 0.30873,0.09299 0.10229,0.09299 0.10229,0.236197 z m 0.658377,0.202721 q 0.20458,0 0.325469,0.10229 0.120888,0.10229 0.120888,0.288272 0,0.20644 -0.132047,0.325469 -0.130188,0.117168 -0.364525,0.117168 -0.10229,0 -0.193421,-0.0186 -0.08927,-0.0186 -0.150646,-0.05394 v -0.154365 q 0.06695,0.04092 0.161805,0.06509 0.09671,0.02232 0.184122,0.02232 0.146926,0 0.236197,-0.06881 0.09113,-0.07067 0.09113,-0.217599 0,-0.130187 -0.07997,-0.199 -0.07997,-0.07067 -0.252936,-0.07067 -0.05207,0 -0.119028,0.0093 -0.06695,0.0093 -0.10787,0.0186 l -0.08183,-0.05208 0.05022,-0.626759 h 0.665816 v 0.148785 H 64.67212 l -0.03162,0.384983 q 0.03162,-0.0056 0.08555,-0.01302 0.05393,-0.0074 0.119028,-0.0074 z m -3.29746,-2.211326 h 0.459376 v 0.650937 q -0.10787,0.03534 -0.217599,0.05208 -0.10973,0.01674 -0.249216,0.01674 -0.20644,0 -0.347786,-0.08183 -0.141347,-0.08369 -0.21574,-0.236197 -0.07253,-0.154365 -0.07253,-0.364525 0,-0.2083 0.08183,-0.360805 0.08183,-0.152505 0.234337,-0.236197 0.154365,-0.08555 0.371964,-0.08555 0.111589,0 0.21016,0.02046 0.10043,0.02046 0.185982,0.05765 l -0.06323,0.145066 q -0.07067,-0.03162 -0.159945,-0.05393 -0.08741,-0.02232 -0.182262,-0.02232 -0.238057,0 -0.371964,0.143206 -0.132047,0.143206 -0.132047,0.392422 0,0.158085 0.05022,0.280833 0.05207,0.120888 0.161804,0.189702 0.109729,0.06695 0.288272,0.06695 0.08741,0 0.148786,-0.0093 0.06137,-0.0093 0.111589,-0.02232 v -0.394282 h -0.291992 z m 1.128912,-0.626759 q 0.260375,0 0.379403,0.10229 0.119029,0.10229 0.119029,0.288272 0,0.109729 -0.05022,0.20644 -0.04836,0.09485 -0.165524,0.154365 -0.115309,0.05951 -0.31431,0.05951 H 62.4924 v 0.51703 h -0.167384 v -1.327911 z m -0.01488,0.143206 h -0.169244 v 0.524469 h 0.133907 q 0.189702,0 0.282693,-0.06137 0.09299,-0.06137 0.09299,-0.2083 0,-0.128328 -0.08183,-0.191561 -0.08183,-0.06323 -0.258515,-0.06323 z m 1.525051,0.167383 q 0,0.133908 -0.07439,0.21388 -0.07439,0.07811 -0.20086,0.10415 v 0.0074 q 0.159944,0.0186 0.238057,0.10043 0.07811,0.08183 0.07811,0.21388 0,0.115308 -0.05393,0.20644 -0.05393,0.08927 -0.167384,0.139486 -0.111589,0.05021 -0.288272,0.05021 -0.10415,0 -0.193421,-0.01674 -0.08927,-0.01488 -0.171103,-0.0558 v -0.152505 q 0.08369,0.04092 0.180402,0.06509 0.09671,0.02232 0.185982,0.02232 0.178543,0 0.256655,-0.06881 0.07997,-0.07067 0.07997,-0.193421 0,-0.124608 -0.09857,-0.178543 -0.09671,-0.05579 -0.273393,-0.05579 h -0.128328 v -0.139487 h 0.130187 q 0.163665,0 0.247357,-0.06881 0.08555,-0.06881 0.08555,-0.182263 0,-0.09671 -0.06509,-0.148785 -0.06509,-0.05393 -0.176683,-0.05393 -0.10787,0 -0.184123,0.03162 -0.07625,0.03162 -0.150645,0.07997 l -0.08183,-0.111589 q 0.07067,-0.0558 0.174823,-0.09671 0.10601,-0.04092 0.239917,-0.04092 0.2083,0 0.30873,0.09299 0.10229,0.09299 0.10229,0.236197 z m 0.249217,0.450077 q 0,-0.143206 0.02418,-0.280833 0.02604,-0.139486 0.09113,-0.251076 0.06695,-0.113449 0.185982,-0.180402 0.119028,-0.06695 0.30687,-0.06695 0.03906,0 0.08555,0.0037 0.04836,0.0037 0.07811,0.01302 v 0.139486 q -0.03348,-0.01116 -0.07625,-0.01674 -0.04092,-0.0056 -0.08369,-0.0056 -0.128328,0 -0.21388,0.04278 -0.08555,0.04278 -0.135767,0.117169 -0.04836,0.07439 -0.07067,0.171103 -0.02232,0.09671 -0.0279,0.20644 h 0.01116 q 0.04278,-0.06509 0.119028,-0.109729 0.07625,-0.0465 0.195282,-0.0465 0.172963,0 0.278973,0.10601 0.106009,0.10415 0.106009,0.297571 0,0.2083 -0.115309,0.327329 -0.113449,0.119028 -0.30687,0.119028 -0.126468,0 -0.228758,-0.06323 -0.10229,-0.06323 -0.163664,-0.193421 -0.05951,-0.130187 -0.05951,-0.329188 z m 0.450076,0.448217 q 0.117169,0 0.189702,-0.07439 0.07253,-0.07625 0.07253,-0.234338 0,-0.126467 -0.06509,-0.20086 -0.06323,-0.07439 -0.191561,-0.07439 -0.08741,0 -0.152505,0.0372 -0.06509,0.03534 -0.102291,0.09113 -0.03534,0.05579 -0.03534,0.115308 0,0.07997 0.03162,0.159945 0.03162,0.07811 0.09485,0.130187 0.06323,0.05022 0.158084,0.05022 z m -3.338376,-2.906899 h 0.459376 v 0.650937 q -0.10787,0.03534 -0.217599,0.05208 -0.10973,0.01674 -0.249216,0.01674 -0.20644,0 -0.347786,-0.08183 -0.141347,-0.08369 -0.21574,-0.236197 -0.07253,-0.154365 -0.07253,-0.364525 0,-0.2083 0.08183,-0.360805 0.08183,-0.152505 0.234337,-0.236197 0.154365,-0.08555 0.371964,-0.08555 0.111589,0 0.21016,0.02046 0.10043,0.02046 0.185982,0.05765 l -0.06323,0.145066 q -0.07067,-0.03162 -0.159945,-0.05393 -0.08741,-0.02232 -0.182262,-0.02232 -0.238057,0 -0.371964,0.143206 -0.132047,0.143206 -0.132047,0.392422 0,0.158085 0.05022,0.280833 0.05207,0.120888 0.161804,0.189702 0.109729,0.06695 0.288272,0.06695 0.08741,0 0.148786,-0.0093 0.06137,-0.0093 0.111589,-0.02232 v -0.394282 h -0.291992 z m 1.128912,-0.626759 q 0.260375,0 0.379403,0.10229 0.119029,0.10229 0.119029,0.288272 0,0.109729 -0.05022,0.20644 -0.04836,0.09485 -0.165524,0.154365 -0.115309,0.05951 -0.31431,0.05951 H 62.4924 v 0.51703 h -0.167384 v -1.327911 z m -0.01488,0.143206 h -0.169244 v 0.524469 h 0.133907 q 0.189702,0 0.282693,-0.06137 0.09299,-0.06137 0.09299,-0.2083 0,-0.128328 -0.08183,-0.191561 -0.08183,-0.06323 -0.258515,-0.06323 z m 1.525051,0.167383 q 0,0.133907 -0.07439,0.21388 -0.07439,0.07811 -0.20086,0.10415 v 0.0074 q 0.159944,0.0186 0.238057,0.10043 0.07811,0.08183 0.07811,0.21388 0,0.115308 -0.05393,0.20644 -0.05393,0.08927 -0.167384,0.139486 -0.111589,0.05021 -0.288272,0.05021 -0.10415,0 -0.193421,-0.01674 -0.08927,-0.01488 -0.171103,-0.05579 v -0.152505 q 0.08369,0.04092 0.180402,0.06509 0.09671,0.02232 0.185982,0.02232 0.178543,0 0.256655,-0.06881 0.07997,-0.07067 0.07997,-0.193421 0,-0.124608 -0.09857,-0.178543 -0.09671,-0.05579 -0.273393,-0.05579 h -0.128328 v -0.139487 h 0.130187 q 0.163665,0 0.247357,-0.06881 0.08555,-0.06881 0.08555,-0.182263 0,-0.09671 -0.06509,-0.148785 -0.06509,-0.05393 -0.176683,-0.05393 -0.10787,0 -0.184123,0.03162 -0.07625,0.03162 -0.150645,0.07997 l -0.08183,-0.111589 q 0.07067,-0.0558 0.174823,-0.09671 0.10601,-0.04092 0.239917,-0.04092 0.2083,0 0.30873,0.09299 0.10229,0.09299 0.10229,0.236197 z m 0.399862,1.017322 0.544928,-1.179126 h -0.716031 v -0.148785 h 0.890854 v 0.126467 l -0.539348,1.201444 z m -3.038945,-3.025927 h 0.459376 v 0.650937 q -0.10787,0.03534 -0.217599,0.05208 -0.10973,0.01674 -0.249216,0.01674 -0.20644,0 -0.347786,-0.08183 -0.141347,-0.08369 -0.21574,-0.236197 -0.07253,-0.154365 -0.07253,-0.364525 0,-0.2083 0.08183,-0.360805 0.08183,-0.152505 0.234337,-0.236197 0.154365,-0.08555 0.371964,-0.08555 0.111589,0 0.21016,0.02046 0.10043,0.02046 0.185982,0.05766 l -0.06323,0.145066 q -0.07067,-0.03162 -0.159945,-0.05394 -0.08741,-0.02232 -0.182262,-0.02232 -0.238057,0 -0.371964,0.143206 -0.132047,0.143206 -0.132047,0.392422 0,0.158085 0.05022,0.280833 0.05207,0.120888 0.161804,0.189702 0.109729,0.06695 0.288272,0.06695 0.08741,0 0.148786,-0.0093 0.06137,-0.0093 0.111589,-0.02232 v -0.394282 h -0.291992 z m 1.128912,-0.626759 q 0.260375,0 0.379403,0.10229 0.119029,0.10229 0.119029,0.288272 0,0.109729 -0.05022,0.20644 -0.04836,0.09485 -0.165524,0.154365 -0.115309,0.05951 -0.31431,0.05951 H 62.4924 v 0.51703 h -0.167384 v -1.327911 z m -0.01488,0.143206 h -0.169244 v 0.524469 h 0.133907 q 0.189702,0 0.282693,-0.06137 0.09299,-0.06137 0.09299,-0.2083 0,-0.128328 -0.08183,-0.191561 -0.08183,-0.06323 -0.258515,-0.06323 z m 1.525051,0.167383 q 0,0.133907 -0.07439,0.21388 -0.07439,0.07811 -0.20086,0.10415 v 0.0074 q 0.159944,0.0186 0.238057,0.10043 0.07811,0.08183 0.07811,0.21388 0,0.115308 -0.05393,0.20644 -0.05393,0.08927 -0.167384,0.139486 -0.111589,0.05021 -0.288272,0.05021 -0.10415,0 -0.193421,-0.01674 -0.08927,-0.01488 -0.171103,-0.0558 v -0.152505 q 0.08369,0.04092 0.180402,0.06509 0.09671,0.02232 0.185982,0.02232 0.178543,0 0.256655,-0.06881 0.07997,-0.07067 0.07997,-0.193421 0,-0.124608 -0.09857,-0.178543 -0.09671,-0.05579 -0.273393,-0.05579 h -0.128328 v -0.139487 h 0.130187 q 0.163665,0 0.247357,-0.06881 0.08555,-0.06881 0.08555,-0.182263 0,-0.09671 -0.06509,-0.148785 -0.06509,-0.05393 -0.176683,-0.05393 -0.10787,0 -0.184123,0.03162 -0.07625,0.03162 -0.150645,0.07997 l -0.08183,-0.111589 q 0.07067,-0.0558 0.174823,-0.09671 0.10601,-0.04092 0.239917,-0.04092 0.2083,0 0.30873,0.09299 0.10229,0.09299 0.10229,0.236197 z m 0.676975,-0.329188 q 0.174824,0 0.286413,0.08183 0.111589,0.08183 0.111589,0.236198 0,0.07997 -0.03534,0.139486 -0.03348,0.05951 -0.09113,0.10601 -0.05765,0.04463 -0.126468,0.07997 0.08183,0.03906 0.148786,0.08927 0.06695,0.04836 0.10601,0.113449 0.04092,0.06509 0.04092,0.156225 0,0.167384 -0.119029,0.265955 -0.117168,0.09671 -0.316169,0.09671 -0.213879,0 -0.329188,-0.09299 -0.115309,-0.09485 -0.115309,-0.264094 0,-0.09113 0.0372,-0.158085 0.03906,-0.06695 0.10229,-0.115309 0.06323,-0.04836 0.135767,-0.08183 -0.09671,-0.05579 -0.165524,-0.133907 -0.06695,-0.07997 -0.06695,-0.20272 0,-0.10229 0.05208,-0.171104 0.05208,-0.07067 0.141346,-0.107869 0.08927,-0.0372 0.20272,-0.0372 z m -0.0019,0.132048 q -0.10229,0 -0.169244,0.05021 -0.06509,0.04836 -0.06509,0.141346 0,0.06881 0.03162,0.115309 0.03348,0.04649 0.08927,0.07997 0.05579,0.03162 0.122748,0.06137 0.09671,-0.04092 0.161804,-0.09857 0.06695,-0.05765 0.06695,-0.158085 0,-0.09299 -0.06509,-0.141346 -0.06509,-0.05021 -0.172963,-0.05021 z m -0.277114,0.877835 q 0,0.09671 0.06881,0.161804 0.06881,0.06323 0.212019,0.06323 0.135767,0 0.20644,-0.06323 0.07253,-0.06509 0.07253,-0.167384 0,-0.09671 -0.07625,-0.159944 -0.07625,-0.06509 -0.202721,-0.113449 l -0.02976,-0.01116 q -0.122748,0.05207 -0.187842,0.120888 -0.06323,0.06695 -0.06323,0.169244 z m -3.037044,-2.6893 h 0.459376 v 0.650937 q -0.10787,0.03534 -0.217599,0.05208 -0.10973,0.01674 -0.249216,0.01674 -0.20644,0 -0.347786,-0.08183 -0.141347,-0.08369 -0.21574,-0.236197 -0.07253,-0.154365 -0.07253,-0.364525 0,-0.2083 0.08183,-0.360805 0.08183,-0.152505 0.234337,-0.236197 0.154365,-0.08555 0.371964,-0.08555 0.111589,0 0.21016,0.02046 0.10043,0.02046 0.185982,0.05765 l -0.06323,0.145066 q -0.07067,-0.03162 -0.159945,-0.05394 -0.08741,-0.02232 -0.182262,-0.02232 -0.238057,0 -0.371964,0.143206 -0.132047,0.143206 -0.132047,0.392422 0,0.158085 0.05022,0.280833 0.05207,0.120888 0.161804,0.189702 0.109729,0.06695 0.288272,0.06695 0.08741,0 0.148786,-0.0093 0.06137,-0.0093 0.111589,-0.02232 v -0.394282 h -0.291992 z m 1.128912,-0.62676 q 0.260375,0 0.379403,0.102291 0.119029,0.10229 0.119029,0.288272 0,0.109729 -0.05022,0.20644 -0.04836,0.09485 -0.165524,0.154365 -0.115309,0.05951 -0.31431,0.05951 H 62.4924 v 0.51703 h -0.167384 v -1.327912 z m -0.01488,0.143207 h -0.169244 v 0.524469 h 0.133907 q 0.189702,0 0.282693,-0.06137 0.09299,-0.06137 0.09299,-0.2083 0,-0.128328 -0.08183,-0.191561 -0.08183,-0.06323 -0.258515,-0.06323 z m 1.525051,0.167383 q 0,0.133907 -0.07439,0.21388 -0.07439,0.07811 -0.20086,0.10415 v 0.0074 q 0.159944,0.0186 0.238057,0.10043 0.07811,0.08183 0.07811,0.21388 0,0.115308 -0.05393,0.20644 -0.05393,0.08927 -0.167384,0.139486 -0.111589,0.05021 -0.288272,0.05021 -0.10415,0 -0.193421,-0.01674 -0.08927,-0.01488 -0.171103,-0.0558 v -0.152505 q 0.08369,0.04092 0.180402,0.06509 0.09671,0.02232 0.185982,0.02232 0.178543,0 0.256655,-0.06881 0.07997,-0.07067 0.07997,-0.193421 0,-0.124608 -0.09857,-0.178543 -0.09671,-0.05579 -0.273393,-0.05579 h -0.128328 v -0.139487 h 0.130187 q 0.163665,0 0.247357,-0.06881 0.08555,-0.06881 0.08555,-0.182263 0,-0.09671 -0.06509,-0.148785 -0.06509,-0.05394 -0.176683,-0.05394 -0.10787,0 -0.184123,0.03162 -0.07625,0.03162 -0.150645,0.07997 l -0.08183,-0.111589 q 0.07067,-0.0558 0.174823,-0.09671 0.10601,-0.04092 0.239917,-0.04092 0.2083,0 0.30873,0.09299 0.10229,0.09299 0.10229,0.236197 z m 1.114033,0.256656 q 0,0.143206 -0.02604,0.282692 -0.02418,0.137627 -0.09113,0.251076 -0.06509,0.111589 -0.185982,0.178543 -0.119028,0.06695 -0.30687,0.06695 -0.0372,0 -0.08741,-0.0056 -0.04836,-0.0037 -0.07997,-0.01302 v -0.139487 q 0.07253,0.02418 0.163665,0.02418 0.130187,0 0.213879,-0.04278 0.08555,-0.04278 0.135767,-0.115309 0.05022,-0.07439 0.07253,-0.171103 0.02232,-0.09857 0.02604,-0.20644 h -0.01116 q -0.04092,0.06323 -0.119028,0.109729 -0.07625,0.04464 -0.197141,0.04464 -0.171104,0 -0.277113,-0.10415 -0.10415,-0.10601 -0.10415,-0.297571 0,-0.139487 0.05208,-0.239917 0.05393,-0.10043 0.148785,-0.154365 0.09485,-0.05393 0.223179,-0.05393 0.126467,0 0.228758,0.06509 0.10229,0.06323 0.161804,0.193421 0.05951,0.128328 0.05951,0.327329 z m -0.450076,-0.448217 q -0.115309,0 -0.189702,0.07625 -0.07253,0.07625 -0.07253,0.232477 0,0.128328 0.06137,0.20272 0.06323,0.07253 0.193421,0.07253 0.08927,0 0.154365,-0.03534 0.06509,-0.0372 0.100431,-0.09299 0.0372,-0.0558 0.0372,-0.115309 0,-0.07997 -0.03162,-0.158085 -0.03162,-0.07811 -0.09485,-0.130187 -0.06323,-0.05208 -0.158084,-0.05208 z m -3.30304,-1.817044 h 0.459376 v 0.650937 q -0.10787,0.03534 -0.217599,0.05208 -0.10973,0.01674 -0.249216,0.01674 -0.20644,0 -0.347786,-0.08183 -0.141347,-0.08369 -0.21574,-0.236197 -0.07253,-0.154365 -0.07253,-0.364525 0,-0.2083 0.08183,-0.360805 0.08183,-0.152505 0.234337,-0.236197 0.154365,-0.08555 0.371964,-0.08555 0.111589,0 0.21016,0.02046 0.10043,0.02046 0.185982,0.05765 l -0.06323,0.145066 q -0.07067,-0.03162 -0.159945,-0.05393 -0.08741,-0.02232 -0.182262,-0.02232 -0.238057,0 -0.371964,0.143206 -0.132047,0.143206 -0.132047,0.392422 0,0.158085 0.05022,0.280833 0.05207,0.120888 0.161804,0.189702 0.109729,0.06695 0.288272,0.06695 0.08741,0 0.148786,-0.0093 0.06137,-0.0093 0.111589,-0.02232 v -0.394282 h -0.291992 z m 1.128912,-0.62676 q 0.260375,0 0.379403,0.102291 0.119029,0.10229 0.119029,0.288272 0,0.109729 -0.05022,0.20644 -0.04836,0.09485 -0.165524,0.154365 -0.115309,0.05951 -0.31431,0.05951 H 62.4924 v 0.51703 h -0.167384 v -1.327912 z m -0.01488,0.143207 h -0.169244 v 0.524469 h 0.133907 q 0.189702,0 0.282693,-0.06137 0.09299,-0.06137 0.09299,-0.2083 0,-0.128328 -0.08183,-0.191561 -0.08183,-0.06323 -0.258515,-0.06323 z m 1.63478,0.883414 h -0.193421 v 0.301291 h -0.158085 v -0.301291 h -0.636058 v -0.139486 l 0.6249,-0.894574 h 0.169243 v 0.887134 h 0.193421 z m -0.351506,-0.565385 q 0,-0.09671 0.0037,-0.163664 0.0037,-0.06881 0.0056,-0.130188 h -0.0074 q -0.01488,0.03534 -0.0372,0.07625 -0.02232,0.04092 -0.04278,0.06881 l -0.398001,0.567245 h 0.476113 z m 1.36139,0.20086 q 0,0.21388 -0.04464,0.368245 -0.04464,0.152505 -0.141346,0.234337 -0.09671,0.08183 -0.256656,0.08183 -0.225038,0 -0.332907,-0.180402 -0.10601,-0.182263 -0.10601,-0.504012 0,-0.215739 0.04278,-0.368244 0.04463,-0.152505 0.141346,-0.232477 0.09671,-0.08183 0.254795,-0.08183 0.223179,0 0.332908,0.180403 0.10973,0.178543 0.10973,0.50215 z m -0.717891,0 q 0,0.273394 0.06137,0.409161 0.06323,0.135767 0.213879,0.135767 0.148786,0 0.21202,-0.133907 0.06509,-0.135767 0.06509,-0.411021 0,-0.271533 -0.06509,-0.4073 -0.06323,-0.135767 -0.21202,-0.135767 -0.150645,0 -0.213879,0.135767 -0.06137,0.135767 -0.06137,0.4073 z m -3.040805,-2.360111 h 0.459376 v 0.650937 q -0.10787,0.03534 -0.217599,0.05208 -0.10973,0.01674 -0.249216,0.01674 -0.20644,0 -0.347786,-0.08183 -0.141347,-0.08369 -0.21574,-0.236197 -0.07253,-0.154365 -0.07253,-0.364525 0,-0.2083 0.08183,-0.360805 0.08183,-0.152505 0.234337,-0.236197 0.154365,-0.08555 0.371964,-0.08555 0.111589,0 0.21016,0.02046 0.10043,0.02046 0.185982,0.05765 l -0.06323,0.145066 q -0.07067,-0.03162 -0.159945,-0.05393 -0.08741,-0.02232 -0.182262,-0.02232 -0.238057,0 -0.371964,0.143206 -0.132047,0.143206 -0.132047,0.392422 0,0.158085 0.05022,0.280833 0.05207,0.120888 0.161804,0.189702 0.109729,0.06695 0.288272,0.06695 0.08741,0 0.148786,-0.0093 0.06137,-0.0093 0.111589,-0.02232 v -0.394282 h -0.291992 z m 1.128912,-0.62676 q 0.260375,0 0.379403,0.102291 0.119029,0.10229 0.119029,0.288272 0,0.109729 -0.05022,0.20644 -0.04836,0.09485 -0.165524,0.154365 -0.115309,0.05951 -0.31431,0.05951 H 62.4924 v 0.51703 h -0.167384 v -1.327912 z m -0.01488,0.143207 h -0.169244 v 0.524469 h 0.133907 q 0.189702,0 0.282693,-0.06137 0.09299,-0.06137 0.09299,-0.2083 0,-0.128328 -0.08183,-0.191562 -0.08183,-0.06323 -0.258515,-0.06323 z m 1.63478,0.883414 h -0.193421 v 0.301291 h -0.158085 v -0.301291 h -0.636058 v -0.139486 l 0.6249,-0.894574 h 0.169243 v 0.887134 h 0.193421 z m -0.351506,-0.565385 q 0,-0.09671 0.0037,-0.163664 0.0037,-0.06881 0.0056,-0.130188 h -0.0074 q -0.01488,0.03534 -0.0372,0.07625 -0.02232,0.04092 -0.04278,0.06881 l -0.398001,0.567245 h 0.476113 z m 1.04894,0.866676 h -0.159945 v -0.92805 q 0,-0.07997 0.0019,-0.128328 0.0019,-0.04835 0.0056,-0.10043 -0.02976,0.02976 -0.05393,0.05022 -0.02418,0.02046 -0.06137,0.05207 l -0.141347,0.115309 -0.08555,-0.10973 0.358945,-0.278973 h 0.135767 z m -3.446246,-3.025927 h 0.459376 v 0.650937 q -0.10787,0.03534 -0.217599,0.05207 -0.10973,0.01674 -0.249216,0.01674 -0.20644,0 -0.347786,-0.08183 -0.141347,-0.08369 -0.21574,-0.236197 -0.07253,-0.154365 -0.07253,-0.364525 0,-0.2083 0.08183,-0.360805 0.08183,-0.152505 0.234337,-0.236197 0.154365,-0.08555 0.371964,-0.08555 0.111589,0 0.21016,0.02046 0.10043,0.02046 0.185982,0.05766 l -0.06323,0.145066 q -0.07067,-0.03162 -0.159945,-0.05394 -0.08741,-0.02232 -0.182262,-0.02232 -0.238057,0 -0.371964,0.143206 -0.132047,0.143206 -0.132047,0.392422 0,0.158085 0.05022,0.280833 0.05207,0.120888 0.161804,0.189702 0.109729,0.06695 0.288272,0.06695 0.08741,0 0.148786,-0.0093 0.06137,-0.0093 0.111589,-0.02232 v -0.394282 h -0.291992 z m 1.128912,-0.62676 q 0.260375,0 0.379403,0.102291 0.119029,0.10229 0.119029,0.288272 0,0.109729 -0.05022,0.20644 -0.04836,0.09485 -0.165524,0.154365 -0.115309,0.05951 -0.31431,0.05951 H 62.4924 v 0.51703 h -0.167384 v -1.327912 z m -0.01488,0.143207 h -0.169244 v 0.524469 h 0.133907 q 0.189702,0 0.282693,-0.06137 0.09299,-0.06137 0.09299,-0.2083 0,-0.128328 -0.08183,-0.191562 -0.08183,-0.06323 -0.258515,-0.06323 z m 1.63478,0.883414 h -0.193421 v 0.301291 h -0.158085 v -0.301291 h -0.636058 v -0.139486 l 0.6249,-0.894574 h 0.169243 v 0.887134 h 0.193421 z m -0.351506,-0.565385 q 0,-0.09671 0.0037,-0.163664 0.0037,-0.06881 0.0056,-0.130188 h -0.0074 q -0.01488,0.03534 -0.0372,0.07625 -0.02232,0.04092 -0.04278,0.06881 l -0.398001,0.567245 h 0.476113 z m 1.35581,0.866676 h -0.877835 v -0.135767 l 0.347786,-0.351506 q 0.100431,-0.10043 0.169244,-0.178543 0.06881,-0.07811 0.10415,-0.152505 0.03534,-0.07625 0.03534,-0.165524 0,-0.109729 -0.06509,-0.165524 -0.06509,-0.05765 -0.169244,-0.05765 -0.09671,0 -0.171103,0.03348 -0.07253,0.03348 -0.148786,0.09299 l -0.08741,-0.10973 q 0.07811,-0.06509 0.178542,-0.109729 0.10229,-0.0465 0.228758,-0.0465 0.185982,0 0.293852,0.09485 0.107869,0.09299 0.107869,0.258515 0,0.10415 -0.04277,0.195281 -0.04278,0.09113 -0.119029,0.180403 -0.07625,0.08741 -0.178543,0.187842 l -0.277113,0.273393 v 0.0074 h 0.671395 z m -3.753116,-3.025927 h 0.459376 v 0.650937 q -0.10787,0.03534 -0.217599,0.05208 -0.10973,0.01674 -0.249216,0.01674 -0.20644,0 -0.347786,-0.08183 -0.141347,-0.08369 -0.21574,-0.236197 -0.07253,-0.154365 -0.07253,-0.364525 0,-0.2083 0.08183,-0.360805 0.08183,-0.152505 0.234337,-0.236197 0.154365,-0.08555 0.371964,-0.08555 0.111589,0 0.21016,0.02046 0.10043,0.02046 0.185982,0.05766 l -0.06323,0.145066 q -0.07067,-0.03162 -0.159945,-0.05394 -0.08741,-0.02232 -0.182262,-0.02232 -0.238057,0 -0.371964,0.143206 -0.132047,0.143206 -0.132047,0.392422 0,0.158085 0.05022,0.280833 0.05207,0.120888 0.161804,0.189702 0.109729,0.06695 0.288272,0.06695 0.08741,0 0.148786,-0.0093 0.06137,-0.0093 0.111589,-0.02232 v -0.394282 h -0.291992 z m 1.128912,-0.62676 q 0.260375,0 0.379403,0.102291 0.119029,0.10229 0.119029,0.288272 0,0.109729 -0.05022,0.20644 -0.04836,0.09485 -0.165524,0.154365 -0.115309,0.05951 -0.31431,0.05951 H 62.4924 v 0.51703 h -0.167384 v -1.327912 z m -0.01488,0.143207 h -0.169244 v 0.524469 h 0.133907 q 0.189702,0 0.282693,-0.06137 0.09299,-0.06137 0.09299,-0.2083 0,-0.128328 -0.08183,-0.191562 -0.08183,-0.06323 -0.258515,-0.06323 z m 1.63478,0.883414 h -0.193421 v 0.301291 h -0.158085 v -0.301291 h -0.636058 v -0.139486 l 0.6249,-0.894574 h 0.169243 v 0.887134 h 0.193421 z m -0.351506,-0.565385 q 0,-0.09671 0.0037,-0.163664 0.0037,-0.06881 0.0056,-0.130188 h -0.0074 q -0.01488,0.03534 -0.0372,0.07625 -0.02232,0.04092 -0.04278,0.06881 l -0.398001,0.567245 h 0.476113 z m 1.305595,-0.150646 q 0,0.133907 -0.07439,0.21388 -0.07439,0.07811 -0.20086,0.10415 v 0.0074 q 0.159944,0.0186 0.238057,0.10043 0.07811,0.08183 0.07811,0.213879 0,0.115309 -0.05393,0.20644 -0.05393,0.08927 -0.167384,0.139487 -0.111589,0.05022 -0.288272,0.05022 -0.10415,0 -0.193421,-0.01674 -0.08927,-0.01488 -0.171103,-0.0558 v -0.152505 q 0.08369,0.04092 0.180402,0.06509 0.09671,0.02232 0.185982,0.02232 0.178543,0 0.256655,-0.06881 0.07997,-0.07067 0.07997,-0.193421 0,-0.124608 -0.09857,-0.178543 -0.09671,-0.05579 -0.273393,-0.05579 h -0.128328 v -0.139487 h 0.130187 q 0.163665,0 0.247356,-0.06881 0.08555,-0.06881 0.08555,-0.182263 0,-0.09671 -0.06509,-0.148785 -0.06509,-0.05393 -0.176683,-0.05393 -0.10787,0 -0.184123,0.03162 -0.07625,0.03162 -0.150645,0.07997 l -0.08183,-0.111589 q 0.07067,-0.0558 0.174823,-0.09671 0.10601,-0.04092 0.239917,-0.04092 0.2083,0 0.30873,0.09299 0.10229,0.09299 0.10229,0.236197 z m -3.702901,-2.008605 h 0.459376 v 0.650937 q -0.10787,0.03534 -0.217599,0.05208 -0.10973,0.01674 -0.249216,0.01674 -0.20644,0 -0.347786,-0.08183 -0.141347,-0.08369 -0.21574,-0.236197 -0.07253,-0.154365 -0.07253,-0.364525 0,-0.2083 0.08183,-0.360805 0.08183,-0.152505 0.234337,-0.236197 0.154365,-0.08555 0.371964,-0.08555 0.111589,0 0.21016,0.02046 0.10043,0.02046 0.185982,0.05765 l -0.06323,0.145066 q -0.07067,-0.03162 -0.159945,-0.05393 -0.08741,-0.02232 -0.182262,-0.02232 -0.238057,0 -0.371964,0.143206 -0.132047,0.143206 -0.132047,0.392422 0,0.158085 0.05022,0.280833 0.05207,0.120888 0.161804,0.189702 0.109729,0.06695 0.288272,0.06695 0.08741,0 0.148786,-0.0093 0.06137,-0.0093 0.111589,-0.02232 v -0.394282 h -0.291992 z m 1.128912,-0.62676 q 0.260375,0 0.379403,0.102291 0.119029,0.10229 0.119029,0.288272 0,0.109729 -0.05022,0.20644 -0.04836,0.09485 -0.165524,0.154365 -0.115309,0.05951 -0.31431,0.05951 H 62.4924 v 0.51703 h -0.167384 v -1.327912 z m -0.01488,0.143207 h -0.169244 v 0.524469 h 0.133907 q 0.189702,0 0.282693,-0.06137 0.09299,-0.06137 0.09299,-0.2083 0,-0.128328 -0.08183,-0.191562 -0.08183,-0.06323 -0.258515,-0.06323 z m 1.63478,0.883414 h -0.193421 v 0.301291 h -0.158085 v -0.301291 h -0.636058 v -0.139486 l 0.6249,-0.894574 h 0.169243 v 0.887134 h 0.193421 z m -0.351506,-0.565385 q 0,-0.09671 0.0037,-0.163664 0.0037,-0.06881 0.0056,-0.130188 h -0.0074 q -0.01488,0.03534 -0.0372,0.07625 -0.02232,0.04092 -0.04278,0.06881 l -0.398001,0.567245 h 0.476113 z m 1.415324,0.565385 h -0.193421 v 0.301291 h -0.158085 v -0.301291 h -0.636058 v -0.139486 l 0.624899,-0.894574 h 0.169244 v 0.887134 h 0.193421 z m -0.351506,-0.565385 q 0,-0.09671 0.0037,-0.163664 0.0037,-0.06881 0.0056,-0.130188 h -0.0074 q -0.01488,0.03534 -0.0372,0.07625 -0.02232,0.04092 -0.04278,0.06881 l -0.398002,0.567245 h 0.476114 z m -3.461124,-2.159251 h 0.459376 v 0.650937 q -0.10787,0.03534 -0.217599,0.05207 -0.10973,0.01674 -0.249216,0.01674 -0.20644,0 -0.347786,-0.08183 -0.141347,-0.08369 -0.21574,-0.236197 -0.07253,-0.154365 -0.07253,-0.364525 0,-0.2083 0.08183,-0.360805 0.08183,-0.152505 0.234337,-0.236197 0.154365,-0.08555 0.371964,-0.08555 0.111589,0 0.21016,0.02046 0.10043,0.02046 0.185982,0.05766 l -0.06323,0.145066 q -0.07067,-0.03162 -0.159945,-0.05394 -0.08741,-0.02232 -0.182262,-0.02232 -0.238057,0 -0.371964,0.143206 -0.132047,0.143206 -0.132047,0.392422 0,0.158085 0.05022,0.280833 0.05207,0.120888 0.161804,0.189702 0.109729,0.06695 0.288272,0.06695 0.08741,0 0.148786,-0.0093 0.06137,-0.0093 0.111589,-0.02232 v -0.394282 h -0.291992 z m 1.128912,-0.62676 q 0.260375,0 0.379403,0.102291 0.119029,0.10229 0.119029,0.288272 0,0.109729 -0.05022,0.20644 -0.04836,0.09485 -0.165524,0.154365 -0.115309,0.05951 -0.31431,0.05951 H 62.4924 v 0.51703 h -0.167384 v -1.327912 z m -0.01488,0.143207 h -0.169244 v 0.524469 h 0.133907 q 0.189702,0 0.282693,-0.06137 0.09299,-0.06137 0.09299,-0.2083 0,-0.128328 -0.08183,-0.191562 -0.08183,-0.06323 -0.258515,-0.06323 z m 1.63478,0.883414 h -0.193421 v 0.301291 h -0.158085 v -0.301291 h -0.636058 v -0.139486 l 0.6249,-0.894574 h 0.169243 v 0.887134 h 0.193421 z m -0.351506,-0.565385 q 0,-0.09671 0.0037,-0.163664 0.0037,-0.06881 0.0056,-0.130188 h -0.0074 q -0.01488,0.03534 -0.0372,0.07625 -0.02232,0.04092 -0.04278,0.06881 l -0.398001,0.567245 h 0.476113 z m 0.900154,0.05208 q 0.20458,0 0.325469,0.10229 0.120888,0.10229 0.120888,0.288272 0,0.20644 -0.132047,0.325468 -0.130188,0.117169 -0.364525,0.117169 -0.10229,0 -0.193421,-0.0186 -0.08927,-0.0186 -0.150646,-0.05394 v -0.154365 q 0.06695,0.04092 0.161805,0.06509 0.09671,0.02232 0.184122,0.02232 0.146926,0 0.236197,-0.06881 0.09113,-0.07067 0.09113,-0.217599 0,-0.130187 -0.07997,-0.199 -0.07997,-0.07067 -0.252936,-0.07067 -0.05207,0 -0.119028,0.0093 -0.06695,0.0093 -0.10787,0.0186 l -0.08183,-0.05207 0.05022,-0.62676 h 0.665816 v 0.148786 H 64.67212 l -0.03162,0.384983 q 0.03162,-0.0056 0.08555,-0.01302 0.05393,-0.0074 0.119028,-0.0074 z m -3.29746,-2.211331 h 0.459376 v 0.650937 q -0.10787,0.03534 -0.217599,0.05208 -0.10973,0.01674 -0.249216,0.01674 -0.20644,0 -0.347786,-0.08183 -0.141347,-0.08369 -0.21574,-0.236197 -0.07253,-0.154365 -0.07253,-0.364525 0,-0.2083 0.08183,-0.360805 0.08183,-0.152505 0.234337,-0.236197 0.154365,-0.08555 0.371964,-0.08555 0.111589,0 0.21016,0.02046 0.10043,0.02046 0.185982,0.05766 l -0.06323,0.145066 q -0.07067,-0.03162 -0.159945,-0.05394 -0.08741,-0.02232 -0.182262,-0.02232 -0.238057,0 -0.371964,0.143206 -0.132047,0.143206 -0.132047,0.392422 0,0.158085 0.05022,0.280833 0.05207,0.120888 0.161804,0.189702 0.109729,0.06695 0.288272,0.06695 0.08741,0 0.148786,-0.0093 0.06137,-0.0093 0.111589,-0.02232 v -0.394282 h -0.291992 z m 1.128912,-0.62676 q 0.260375,0 0.379403,0.102291 0.119029,0.10229 0.119029,0.288272 0,0.109729 -0.05022,0.20644 -0.04836,0.09485 -0.165524,0.154365 -0.115309,0.05951 -0.31431,0.05951 H 62.4924 v 0.51703 h -0.167384 v -1.327912 z m -0.01488,0.143207 h -0.169244 v 0.524469 h 0.133907 q 0.189702,0 0.282693,-0.06137 0.09299,-0.06137 0.09299,-0.2083 0,-0.128328 -0.08183,-0.191562 -0.08183,-0.06323 -0.258515,-0.06323 z m 1.63478,0.883414 h -0.193421 v 0.301291 h -0.158085 v -0.301291 h -0.636058 v -0.139486 l 0.6249,-0.894574 h 0.169243 v 0.887134 h 0.193421 z m -0.351506,-0.565385 q 0,-0.09671 0.0037,-0.163664 0.0037,-0.06881 0.0056,-0.130188 h -0.0074 q -0.01488,0.03534 -0.0372,0.07625 -0.02232,0.04092 -0.04278,0.06881 l -0.398001,0.567245 h 0.476113 z m 0.490994,0.299431 q 0,-0.143206 0.02418,-0.280833 0.02604,-0.139487 0.09113,-0.251076 0.06695,-0.113449 0.185982,-0.180402 0.119028,-0.06695 0.30687,-0.06695 0.03906,0 0.08555,0.0037 0.04836,0.0037 0.07811,0.01302 v 0.139486 q -0.03348,-0.01116 -0.07625,-0.01674 -0.04092,-0.0056 -0.08369,-0.0056 -0.128328,0 -0.21388,0.04278 -0.08555,0.04278 -0.135767,0.117169 -0.04836,0.07439 -0.07067,0.171103 -0.02232,0.09671 -0.0279,0.20644 h 0.01116 q 0.04278,-0.06509 0.119028,-0.109729 0.07625,-0.0465 0.195282,-0.0465 0.172963,0 0.278973,0.10601 0.106009,0.10415 0.106009,0.297571 0,0.2083 -0.115309,0.327329 -0.113449,0.119028 -0.30687,0.119028 -0.126468,0 -0.228758,-0.06323 -0.10229,-0.06323 -0.163664,-0.193421 -0.05951,-0.130187 -0.05951,-0.329188 z m 0.450076,0.448216 q 0.117169,0 0.189702,-0.07439 0.07253,-0.07625 0.07253,-0.234338 0,-0.126467 -0.06509,-0.20086 -0.06323,-0.07439 -0.191561,-0.07439 -0.08741,0 -0.152505,0.0372 -0.06509,0.03534 -0.102291,0.09113 -0.03534,0.05579 -0.03534,0.115308 0,0.07997 0.03162,0.159945 0.03162,0.07811 0.09485,0.130187 0.06323,0.05022 0.158084,0.05022 z m -3.338376,-2.906898 h 0.459376 v 0.650937 q -0.10787,0.03534 -0.217599,0.05208 -0.10973,0.01674 -0.249216,0.01674 -0.20644,0 -0.347786,-0.08183 -0.141347,-0.08369 -0.21574,-0.236197 -0.07253,-0.154365 -0.07253,-0.364525 0,-0.2083 0.08183,-0.360805 0.08183,-0.152505 0.234337,-0.236197 0.154365,-0.08555 0.371964,-0.08555 0.111589,0 0.21016,0.02046 0.10043,0.02046 0.185982,0.05765 l -0.06323,0.145066 q -0.07067,-0.03162 -0.159945,-0.05393 -0.08741,-0.02232 -0.182262,-0.02232 -0.238057,0 -0.371964,0.143206 -0.132047,0.143206 -0.132047,0.392422 0,0.158085 0.05022,0.280833 0.05207,0.120888 0.161804,0.189702 0.109729,0.06695 0.288272,0.06695 0.08741,0 0.148786,-0.0093 0.06137,-0.0093 0.111589,-0.02232 v -0.394282 h -0.291992 z m 1.830064,0.701152 h -0.195281 l -0.710451,-1.102873 h -0.0074 q 0.0037,0.06509 0.0093,0.161804 0.0056,0.09671 0.0056,0.199001 v 0.742068 h -0.154365 v -1.327912 h 0.193421 l 0.708592,1.099154 h 0.0074 q -0.0019,-0.02976 -0.0056,-0.08927 -0.0019,-0.05952 -0.0056,-0.130188 -0.0019,-0.07067 -0.0019,-0.130187 v -0.749508 h 0.156225 z m 1.424623,-0.676975 q 0,0.336628 -0.184122,0.507731 -0.182263,0.169244 -0.509591,0.169244 h -0.370104 v -1.327912 h 0.40916 q 0.200861,0 0.347786,0.07439 0.146926,0.07439 0.226898,0.219459 0.07997,0.143206 0.07997,0.357085 z m -0.176683,0.0056 q 0,-0.265954 -0.132047,-0.388703 -0.130188,-0.124607 -0.370105,-0.124607 h -0.217599 v 1.041499 h 0.180403 q 0.539348,0 0.539348,-0.528189 z m -3.078004,-2.354552 h 0.459376 v 0.650937 q -0.10787,0.03534 -0.217599,0.05208 -0.10973,0.01674 -0.249216,0.01674 -0.20644,0 -0.347786,-0.08183 -0.141347,-0.08369 -0.21574,-0.236197 -0.07253,-0.154365 -0.07253,-0.364525 0,-0.2083 0.08183,-0.360805 0.08183,-0.152505 0.234337,-0.236197 0.154365,-0.08555 0.371964,-0.08555 0.111589,0 0.21016,0.02046 0.10043,0.02046 0.185982,0.05766 l -0.06323,0.145066 q -0.07067,-0.03162 -0.159945,-0.05394 -0.08741,-0.02232 -0.182262,-0.02232 -0.238057,0 -0.371964,0.143206 -0.132047,0.143206 -0.132047,0.392422 0,0.158085 0.05022,0.280833 0.05207,0.120888 0.161804,0.189702 0.109729,0.06695 0.288272,0.06695 0.08741,0 0.148786,-0.0093 0.06137,-0.0093 0.111589,-0.02232 v -0.394282 h -0.291992 z m 1.128912,-0.62676 q 0.260375,0 0.379403,0.102291 0.119029,0.10229 0.119029,0.288272 0,0.109729 -0.05022,0.20644 -0.04836,0.09485 -0.165524,0.154365 -0.115309,0.05951 -0.31431,0.05951 H 62.4924 v 0.51703 h -0.167384 v -1.327912 z m -0.01488,0.143207 h -0.169244 v 0.524469 h 0.133907 q 0.189702,0 0.282693,-0.06137 0.09299,-0.06137 0.09299,-0.2083 0,-0.128328 -0.08183,-0.191562 -0.08183,-0.06323 -0.258515,-0.06323 z m 1.63478,0.883414 h -0.193421 v 0.301291 h -0.158085 v -0.301291 h -0.636058 v -0.139486 l 0.6249,-0.894574 h 0.169243 v 0.887134 h 0.193421 z m -0.351506,-0.565385 q 0,-0.09671 0.0037,-0.163664 0.0037,-0.06881 0.0056,-0.130188 h -0.0074 q -0.01488,0.03534 -0.0372,0.07625 -0.02232,0.04092 -0.04278,0.06881 l -0.398001,0.567245 h 0.476113 z m 0.641639,0.866676 0.544928,-1.179126 h -0.716031 v -0.148786 h 0.890854 v 0.126468 l -0.539348,1.201444 z m -2.862262,-2.680001 q 0,0.176683 -0.128327,0.275254 -0.128328,0.09857 -0.345927,0.09857 -0.111589,0 -0.20644,-0.01674 -0.09485,-0.01674 -0.158085,-0.0465 v -0.159944 q 0.06695,0.02976 0.165524,0.05393 0.100431,0.02418 0.20644,0.02418 0.148786,0 0.223179,-0.05765 0.07625,-0.05765 0.07625,-0.156225 0,-0.06509 -0.0279,-0.10973 -0.0279,-0.04463 -0.09671,-0.08183 -0.06695,-0.03906 -0.187841,-0.08183 -0.169244,-0.06137 -0.256656,-0.150645 -0.08555,-0.08927 -0.08555,-0.243637 0,-0.106009 0.05393,-0.180402 0.05393,-0.07625 0.148786,-0.117169 0.09671,-0.04092 0.221319,-0.04092 0.109729,0 0.20086,0.02046 0.09113,0.02046 0.165524,0.05393 l -0.05208,0.143206 q -0.06881,-0.02976 -0.150645,-0.05022 -0.07997,-0.02046 -0.167384,-0.02046 -0.124608,0 -0.187842,0.05394 -0.06323,0.05207 -0.06323,0.139486 0,0.06695 0.0279,0.111589 0.0279,0.04464 0.09113,0.07997 0.06323,0.03534 0.171103,0.07625 0.117169,0.04278 0.197141,0.09299 0.08183,0.04836 0.122748,0.117169 0.04278,0.06881 0.04278,0.172963 z m 1.792866,-0.972686 -0.353366,1.327912 H 62.994555 L 62.73604,43.879238 q -0.01488,-0.05394 -0.02976,-0.107869 -0.01488,-0.05394 -0.02418,-0.09485 -0.0093,-0.04278 -0.01302,-0.05952 -0.0019,0.02418 -0.02046,0.10415 -0.01674,0.07811 -0.04278,0.163665 l -0.251075,0.864816 h -0.169244 l -0.351506,-1.327912 h 0.174823 l 0.20644,0.810882 q 0.02232,0.08555 0.0372,0.165524 0.01674,0.07997 0.02604,0.150645 0.0093,-0.07253 0.0279,-0.158084 0.0186,-0.08555 0.04278,-0.167384 l 0.234338,-0.801583 h 0.172963 l 0.243636,0.807162 q 0.02604,0.08555 0.04464,0.171104 0.0186,0.08369 0.0279,0.148785 0.0093,-0.06881 0.02604,-0.148785 0.01674,-0.08183 0.03906,-0.169244 l 0.20458,-0.809022 z m 1.268398,0.650937 q 0,0.336628 -0.184122,0.507731 -0.182262,0.169244 -0.509591,0.169244 h -0.370104 v -1.327912 h 0.40916 q 0.200861,0 0.347787,0.07439 0.146926,0.07439 0.226898,0.219459 0.07997,0.143206 0.07997,0.357085 z m -0.176683,0.0056 q 0,-0.265954 -0.132047,-0.388703 -0.130187,-0.124607 -0.370104,-0.124607 h -0.217599 v 1.041499 h 0.180402 q 0.539348,0 0.539348,-0.528189 z m 0.844358,0.671395 h -0.479834 v -0.09671 l 0.156225,-0.03534 v -1.061958 l -0.156225,-0.0372 v -0.09671 h 0.479834 v 0.09671 l -0.156225,0.0372 v 1.061958 l 0.156225,0.03534 z m 1.415324,-0.665816 q 0,0.20644 -0.07067,0.360805 -0.06881,0.152506 -0.20458,0.238057 -0.135767,0.08555 -0.336628,0.08555 -0.20644,0 -0.344067,-0.08555 -0.135766,-0.08555 -0.20272,-0.239916 -0.06695,-0.154365 -0.06695,-0.360806 0,-0.20458 0.06695,-0.357085 0.06695,-0.152505 0.20272,-0.238057 0.137627,-0.08555 0.345927,-0.08555 0.199001,0 0.334768,0.08555 0.135766,0.08369 0.20458,0.238057 0.07067,0.152505 0.07067,0.358945 z m -1.048939,0 q 0,0.251076 0.10601,0.396142 0.10601,0.143206 0.331048,0.143206 0.226898,0 0.331048,-0.143206 0.10415,-0.145066 0.10415,-0.396142 0,-0.251075 -0.10415,-0.392422 -0.10415,-0.143206 -0.329188,-0.143206 -0.225038,0 -0.332908,0.143206 -0.10601,0.141347 -0.10601,0.392422 z m -4.469148,-2.986891 q 0.249216,0 0.375684,0.07439 0.128328,0.07253 0.128328,0.254796 0,0.117168 -0.06509,0.195281 -0.06509,0.07625 -0.187842,0.09857 v 0.0093 q 0.08369,0.01302 0.150645,0.04836 0.06881,0.03534 0.10787,0.10043 0.03906,0.06509 0.03906,0.169243 0,0.180403 -0.124608,0.278973 -0.122748,0.09857 -0.336627,0.09857 h -0.466815 v -1.327912 z m 0.03348,0.565386 q 0.171104,0 0.234337,-0.05393 0.06323,-0.0558 0.06323,-0.163664 0,-0.10973 -0.07811,-0.156225 -0.07625,-0.04836 -0.245496,-0.04836 h -0.219459 v 0.422179 z m -0.245496,0.139486 v 0.481694 h 0.267814 q 0.176683,0 0.245496,-0.06881 0.06881,-0.06881 0.06881,-0.180402 0,-0.10415 -0.07253,-0.167384 -0.07067,-0.06509 -0.254796,-0.06509 z m 2.200166,-0.04278 q 0,0.20644 -0.07067,0.360805 -0.06881,0.152506 -0.20458,0.238057 -0.135767,0.08555 -0.336628,0.08555 -0.20644,0 -0.344066,-0.08555 -0.135767,-0.08555 -0.202721,-0.239916 -0.06695,-0.154365 -0.06695,-0.360806 0,-0.20458 0.06695,-0.357085 0.06695,-0.152505 0.202721,-0.238057 0.137626,-0.08555 0.345926,-0.08555 0.199001,0 0.334768,0.08555 0.135767,0.08369 0.20458,0.238057 0.07067,0.152505 0.07067,0.358945 z m -1.048938,0 q 0,0.251076 0.106009,0.396142 0.10601,0.143206 0.331048,0.143206 0.226898,0 0.331048,-0.143206 0.10415,-0.145066 0.10415,-0.396142 0,-0.251075 -0.10415,-0.392422 -0.10415,-0.143206 -0.329188,-0.143206 -0.225038,0 -0.332908,0.143206 -0.106009,0.141347 -0.106009,0.392422 z m 2.501458,0 q 0,0.20644 -0.07067,0.360805 -0.06881,0.152506 -0.20458,0.238057 -0.135767,0.08555 -0.336628,0.08555 -0.20644,0 -0.344067,-0.08555 -0.135766,-0.08555 -0.20272,-0.239916 -0.06695,-0.154365 -0.06695,-0.360806 0,-0.20458 0.06695,-0.357085 0.06695,-0.152505 0.20272,-0.238057 0.137627,-0.08555 0.345927,-0.08555 0.199001,0 0.334768,0.08555 0.135766,0.08369 0.20458,0.238057 0.07067,0.152505 0.07067,0.358945 z m -1.048939,0 q 0,0.251076 0.10601,0.396142 0.10601,0.143206 0.331048,0.143206 0.226898,0 0.331048,-0.143206 0.10415,-0.145066 0.10415,-0.396142 0,-0.251075 -0.10415,-0.392422 -0.10415,-0.143206 -0.329188,-0.143206 -0.225038,0 -0.332908,0.143206 -0.10601,0.141347 -0.10601,0.392422 z m 1.707314,0.665816 h -0.167384 v -1.180986 h -0.41474 v -0.146926 h 0.995004 v 0.146926 h -0.41288 z m 1.366967,-0.355226 q 0,0.176683 -0.128327,0.275254 -0.128328,0.09857 -0.345927,0.09857 -0.111589,0 -0.20644,-0.01674 -0.09485,-0.01674 -0.158085,-0.0465 v -0.159944 q 0.06695,0.02976 0.165524,0.05393 0.100431,0.02418 0.20644,0.02418 0.148786,0 0.223179,-0.05765 0.07625,-0.05766 0.07625,-0.156225 0,-0.06509 -0.0279,-0.10973 -0.0279,-0.04463 -0.09671,-0.08183 -0.06695,-0.03906 -0.187841,-0.08183 -0.169244,-0.06137 -0.256656,-0.150645 -0.08555,-0.08927 -0.08555,-0.243637 0,-0.106009 0.05393,-0.180402 0.05393,-0.07625 0.148786,-0.117169 0.09671,-0.04092 0.221319,-0.04092 0.109729,0 0.20086,0.02046 0.09113,0.02046 0.165524,0.05394 l -0.05207,0.143206 q -0.06881,-0.02976 -0.150645,-0.05022 -0.07997,-0.02046 -0.167384,-0.02046 -0.124608,0 -0.187842,0.05393 -0.06323,0.05208 -0.06323,0.139486 0,0.06695 0.0279,0.111589 0.0279,0.04464 0.09113,0.07997 0.06323,0.03534 0.171103,0.07625 0.117169,0.04278 0.197141,0.09299 0.08183,0.04836 0.122748,0.117169 0.04278,0.06881 0.04278,0.172963 z m 1.009882,0.355226 H 67.0843 v -1.327912 h 0.742068 v 0.146926 h -0.574684 v 0.41474 h 0.541207 v 0.145066 h -0.541207 v 0.474254 h 0.574684 z m 0.291991,0 v -1.327912 h 0.167384 v 1.179126 h 0.580264 v 0.148786 z m -6.570744,-3.025923 h 0.459376 v 0.650937 q -0.10787,0.03534 -0.217599,0.05208 -0.10973,0.01674 -0.249216,0.01674 -0.20644,0 -0.347786,-0.08183 -0.141347,-0.08369 -0.21574,-0.236197 -0.07253,-0.154365 -0.07253,-0.364525 0,-0.2083 0.08183,-0.360805 0.08183,-0.152505 0.234337,-0.236197 0.154365,-0.08555 0.371964,-0.08555 0.111589,0 0.21016,0.02046 0.10043,0.02046 0.185982,0.05766 l -0.06323,0.145066 q -0.07067,-0.03162 -0.159945,-0.05394 -0.08741,-0.02232 -0.182262,-0.02232 -0.238057,0 -0.371964,0.143206 -0.132047,0.143206 -0.132047,0.392422 0,0.158085 0.05022,0.280833 0.05207,0.120888 0.161804,0.189702 0.109729,0.06695 0.288272,0.06695 0.08741,0 0.148786,-0.0093 0.06137,-0.0093 0.111589,-0.02232 v -0.394282 h -0.291992 z m 1.830064,0.701152 h -0.195281 l -0.710451,-1.102873 h -0.0074 q 0.0037,0.06509 0.0093,0.161804 0.0056,0.09671 0.0056,0.199001 v 0.742068 h -0.154365 v -1.327912 h 0.193421 l 0.708592,1.099154 h 0.0074 q -0.0019,-0.02976 -0.0056,-0.08927 -0.0019,-0.05951 -0.0056,-0.130188 -0.0019,-0.07067 -0.0019,-0.130187 v -0.749508 h 0.156225 z m 1.424623,-0.676975 q 0,0.336628 -0.184122,0.507731 -0.182263,0.169244 -0.509591,0.169244 h -0.370104 v -1.327912 h 0.40916 q 0.200861,0 0.347786,0.07439 0.146926,0.07439 0.226898,0.219459 0.07997,0.143206 0.07997,0.357085 z m -0.176683,0.0056 q 0,-0.265954 -0.132047,-0.388703 -0.130188,-0.124607 -0.370105,-0.124607 h -0.217599 v 1.041499 h 0.180403 q 0.539348,0 0.539348,-0.528189 z m -2.644666,-2.122075 q 0,0.137627 -0.05579,0.249216 -0.0558,0.109729 -0.171104,0.174823 -0.113449,0.06323 -0.290132,0.06323 -0.247356,0 -0.377543,-0.133907 -0.128328,-0.135767 -0.128328,-0.357085 v -0.855518 h 0.167384 v 0.861097 q 0,0.161804 0.08555,0.251076 0.08741,0.08927 0.262234,0.08927 0.180403,0 0.260375,-0.09485 0.08183,-0.09671 0.08183,-0.247356 v -0.859237 h 0.165524 z m 1.102875,0.113449 q 0,0.176683 -0.128327,0.275254 -0.128328,0.09857 -0.345927,0.09857 -0.111589,0 -0.20644,-0.01674 -0.09485,-0.01674 -0.158085,-0.0465 v -0.159944 q 0.06695,0.02976 0.165524,0.05393 0.100431,0.02418 0.20644,0.02418 0.148786,0 0.223179,-0.05765 0.07625,-0.05765 0.07625,-0.156225 0,-0.06509 -0.0279,-0.10973 -0.0279,-0.04463 -0.09671,-0.08183 -0.06695,-0.03906 -0.187841,-0.08183 -0.169244,-0.06137 -0.256656,-0.150645 -0.08555,-0.08927 -0.08555,-0.243637 0,-0.106009 0.05393,-0.180402 0.05393,-0.07625 0.148785,-0.117169 0.09671,-0.04092 0.221319,-0.04092 0.109729,0 0.20086,0.02046 0.09113,0.02046 0.165524,0.05393 l -0.05208,0.143206 q -0.06881,-0.02976 -0.150645,-0.05021 -0.07997,-0.02046 -0.167384,-0.02046 -0.124608,0 -0.187842,0.05394 -0.06323,0.05208 -0.06323,0.139486 0,0.06695 0.0279,0.111589 0.0279,0.04464 0.09113,0.07997 0.06323,0.03534 0.171103,0.07625 0.117169,0.04278 0.197141,0.09299 0.08183,0.04836 0.122748,0.117169 0.04278,0.06881 0.04278,0.172963 z m 0.647217,-0.972686 q 0.249216,0 0.375684,0.07439 0.128327,0.07253 0.128327,0.254796 0,0.117168 -0.06509,0.195281 -0.06509,0.07625 -0.187842,0.09857 v 0.0093 q 0.08369,0.01302 0.150645,0.04836 0.06881,0.03534 0.10787,0.100431 0.03906,0.06509 0.03906,0.169243 0,0.180403 -0.124608,0.278973 -0.122748,0.09857 -0.336627,0.09857 h -0.466815 v -1.327912 z m 0.03348,0.565386 q 0.171103,0 0.234337,-0.05393 0.06323,-0.0558 0.06323,-0.163664 0,-0.10973 -0.07811,-0.156225 -0.07625,-0.04836 -0.245497,-0.04836 h -0.219458 v 0.422179 z m -0.245496,0.139486 v 0.481694 h 0.267814 q 0.176683,0 0.245496,-0.06881 0.06881,-0.06881 0.06881,-0.180402 0,-0.10415 -0.07253,-0.167384 -0.07067,-0.06509 -0.254795,-0.06509 z m 2.588869,-0.05393 q 0,0.336628 -0.184122,0.507731 -0.182263,0.169244 -0.509591,0.169244 h -0.370104 v -1.327912 h 0.40916 q 0.200861,0 0.347786,0.07439 0.146926,0.07439 0.226898,0.219459 0.07997,0.143206 0.07997,0.357085 z m -0.176683,0.0056 q 0,-0.265954 -0.132047,-0.388703 -0.130188,-0.124607 -0.370105,-0.124607 h -0.217599 v 1.041499 h 0.180403 q 0.539348,0 0.539348,-0.528189 z m 1.056377,0.671395 -0.437058,-1.164247 h -0.0074 q 0.0056,0.05765 0.0093,0.156224 0.0037,0.09671 0.0037,0.202721 v 0.805302 h -0.154365 v -1.327912 h 0.247356 l 0.40916,1.087995 h 0.0074 l 0.4166,-1.087995 h 0.245496 v 1.327912 h -0.165524 v -0.816461 q 0,-0.09671 0.0037,-0.191562 0.0056,-0.09485 0.0093,-0.154365 h -0.0074 l -0.442637,1.162388 z m -5.263294,-2.680026 q 0,0.176683 -0.128327,0.275254 -0.128328,0.09857 -0.345927,0.09857 -0.111589,0 -0.20644,-0.01674 -0.09485,-0.01674 -0.158085,-0.0465 v -0.159944 q 0.06695,0.02976 0.165524,0.05393 0.100431,0.02418 0.20644,0.02418 0.148786,0 0.223179,-0.05765 0.07625,-0.05766 0.07625,-0.156225 0,-0.06509 -0.0279,-0.10973 -0.0279,-0.04463 -0.09671,-0.08183 -0.06695,-0.03906 -0.187841,-0.08183 -0.169244,-0.06137 -0.256656,-0.150645 -0.08555,-0.08927 -0.08555,-0.243637 0,-0.106009 0.05393,-0.180402 0.05393,-0.07625 0.148786,-0.117169 0.09671,-0.04092 0.221319,-0.04092 0.109729,0 0.20086,0.02046 0.09113,0.02046 0.165524,0.05394 l -0.05208,0.143206 q -0.06881,-0.02976 -0.150645,-0.05022 -0.07997,-0.02046 -0.167384,-0.02046 -0.124608,0 -0.187842,0.05393 -0.06323,0.05208 -0.06323,0.139486 0,0.06695 0.0279,0.111589 0.0279,0.04464 0.09113,0.07997 0.06323,0.03534 0.171103,0.07625 0.117169,0.04278 0.197141,0.09299 0.08183,0.04836 0.122748,0.117169 0.04278,0.06881 0.04278,0.172963 z m 1.792866,-0.972686 -0.353366,1.327912 H 62.994555 L 62.73604,34.580138 q -0.01488,-0.05393 -0.02976,-0.107869 -0.01488,-0.05393 -0.02418,-0.09485 -0.0093,-0.04278 -0.01302,-0.05951 -0.0019,0.02418 -0.02046,0.10415 -0.01674,0.07811 -0.04278,0.163665 l -0.251075,0.864816 h -0.169244 l -0.351506,-1.327912 h 0.174823 l 0.20644,0.810882 q 0.02232,0.08555 0.0372,0.165524 0.01674,0.07997 0.02604,0.150645 0.0093,-0.07253 0.0279,-0.158084 0.0186,-0.08555 0.04278,-0.167384 l 0.234338,-0.801583 h 0.172963 l 0.243636,0.807162 q 0.02604,0.08555 0.04464,0.171104 0.0186,0.08369 0.0279,0.148785 0.0093,-0.06881 0.02604,-0.148785 0.01674,-0.08183 0.03906,-0.169244 l 0.20458,-0.809022 z m 0.755087,0.128328 q -0.213879,0 -0.336627,0.143206 -0.122748,0.143206 -0.122748,0.392422 0,0.247356 0.113449,0.392422 0.115308,0.143206 0.344066,0.143206 0.08741,0 0.165524,-0.01488 0.07811,-0.01488 0.152506,-0.0372 v 0.145066 q -0.07439,0.0279 -0.154365,0.04092 -0.07811,0.01302 -0.187842,0.01302 -0.202721,0 -0.338488,-0.08369 -0.135766,-0.08369 -0.20458,-0.238057 -0.06695,-0.154365 -0.06695,-0.362665 0,-0.20086 0.07253,-0.353366 0.07439,-0.154365 0.217599,-0.239916 0.143206,-0.08741 0.347786,-0.08741 0.21016,0 0.366385,0.07811 l -0.06695,0.141346 q -0.06137,-0.0279 -0.137627,-0.05022 -0.07439,-0.02232 -0.163664,-0.02232 z m 0.606302,1.199584 v -1.327912 h 0.167383 v 1.179126 H 65.6262 v 0.148786 z m 1.945372,0 h -0.197141 l -0.470535,-0.634199 -0.135767,0.119029 v 0.51517 h -0.167383 v -1.327912 h 0.167383 v 0.654657 q 0.0558,-0.06323 0.113449,-0.126468 0.05765,-0.06323 0.115309,-0.126468 l 0.358946,-0.401721 h 0.195281 l -0.526329,0.578404 z m -4.842972,-2.79345 q 0,0.137627 -0.05579,0.249216 -0.0558,0.109729 -0.171104,0.174823 -0.113449,0.06323 -0.290132,0.06323 -0.247356,0 -0.377543,-0.133907 -0.128328,-0.135767 -0.128328,-0.357085 v -0.855518 h 0.167384 v 0.861097 q 0,0.161804 0.08555,0.251076 0.08741,0.08927 0.262234,0.08927 0.180403,0 0.260375,-0.09485 0.08183,-0.09671 0.08183,-0.247356 v -0.859237 h 0.165524 z m 1.102875,0.113449 q 0,0.176683 -0.128327,0.275254 -0.128328,0.09857 -0.345927,0.09857 -0.111589,0 -0.20644,-0.01674 -0.09485,-0.01674 -0.158085,-0.0465 v -0.159944 q 0.06695,0.02976 0.165524,0.05393 0.100431,0.02418 0.20644,0.02418 0.148786,0 0.223179,-0.05765 0.07625,-0.05765 0.07625,-0.156225 0,-0.06509 -0.0279,-0.10973 -0.0279,-0.04463 -0.09671,-0.08183 -0.06695,-0.03906 -0.187841,-0.08183 -0.169244,-0.06137 -0.256656,-0.150645 -0.08555,-0.08927 -0.08555,-0.243637 0,-0.106009 0.05393,-0.180402 0.05393,-0.07625 0.148785,-0.117169 0.09671,-0.04092 0.221319,-0.04092 0.109729,0 0.20086,0.02046 0.09113,0.02046 0.165524,0.05393 l -0.05208,0.143206 q -0.06881,-0.02976 -0.150645,-0.05022 -0.07997,-0.02046 -0.167384,-0.02046 -0.124608,0 -0.187842,0.05393 -0.06323,0.05207 -0.06323,0.139486 0,0.06695 0.0279,0.111589 0.0279,0.04464 0.09113,0.07997 0.06323,0.03534 0.171103,0.07625 0.117169,0.04278 0.197141,0.09299 0.08183,0.04836 0.122748,0.117169 0.04278,0.06881 0.04278,0.172963 z m 0.647217,-0.972686 q 0.249216,0 0.375684,0.07439 0.128327,0.07253 0.128327,0.254795 0,0.117169 -0.06509,0.195282 -0.06509,0.07625 -0.187842,0.09857 v 0.0093 q 0.08369,0.01302 0.150645,0.04836 0.06881,0.03534 0.10787,0.100431 0.03906,0.06509 0.03906,0.169243 0,0.180403 -0.124608,0.278973 -0.122748,0.09857 -0.336627,0.09857 h -0.466815 v -1.327912 z m 0.03348,0.565386 q 0.171103,0 0.234337,-0.05394 0.06323,-0.05579 0.06323,-0.163664 0,-0.10973 -0.07811,-0.156225 -0.07625,-0.04836 -0.245497,-0.04836 h -0.219458 v 0.42218 z m -0.245496,0.139486 v 0.481694 h 0.267814 q 0.176683,0 0.245496,-0.06881 0.06881,-0.06881 0.06881,-0.180402 0,-0.10415 -0.07253,-0.167384 -0.07067,-0.06509 -0.254795,-0.06509 z m 2.588869,-0.05393 q 0,0.336628 -0.184122,0.507731 -0.182263,0.169244 -0.509591,0.169244 h -0.370104 v -1.327912 h 0.40916 q 0.200861,0 0.347786,0.07439 0.146926,0.07439 0.226898,0.219459 0.07997,0.143206 0.07997,0.357085 z m -0.176683,0.0056 q 0,-0.265954 -0.132047,-0.388703 -0.130188,-0.124608 -0.370105,-0.124608 h -0.217599 v 1.0415 h 0.180403 q 0.539348,0 0.539348,-0.528189 z m 0.82204,-0.656517 q 0.260374,0 0.379403,0.10229 0.119028,0.102291 0.119028,0.288273 0,0.109729 -0.05021,0.20644 -0.04836,0.09485 -0.165524,0.154365 -0.115309,0.05951 -0.314309,0.05951 h -0.152506 v 0.51703 h -0.167383 v -1.327912 z m -0.01488,0.143206 h -0.169244 v 0.52447 h 0.133907 q 0.189702,0 0.282693,-0.06137 0.09299,-0.06137 0.09299,-0.2083 0,-0.128328 -0.08183,-0.191562 -0.08183,-0.06323 -0.258515,-0.06323 z m -4.934105,-1.140094 -0.159944,-0.41102 h -0.526329 l -0.158085,0.41102 h -0.169244 l 0.51889,-1.333491 h 0.150646 l 0.51703,1.333491 z m -0.358945,-0.961527 q -0.0056,-0.01488 -0.0186,-0.05393 -0.01302,-0.03906 -0.02604,-0.07997 -0.01116,-0.04278 -0.0186,-0.06509 -0.01302,0.05766 -0.02976,0.113449 -0.01674,0.05393 -0.0279,0.08555 l -0.150646,0.401721 h 0.42032 z m 1.777988,0.284552 q 0,0.336628 -0.184122,0.507731 -0.182263,0.169244 -0.509591,0.169244 h -0.370104 v -1.327912 h 0.40916 q 0.200861,0 0.347787,0.07439 0.146925,0.07439 0.226898,0.219459 0.07997,0.143206 0.07997,0.357085 z m -0.176683,0.0056 q 0,-0.265954 -0.132047,-0.388703 -0.130188,-0.124608 -0.370104,-0.124608 H 62.32688 v 1.0415 h 0.180402 q 0.539348,0 0.539348,-0.528189 z M 64.086268,29.6014 q -0.213879,0 -0.336627,0.143206 -0.122748,0.143206 -0.122748,0.392422 0,0.247356 0.113449,0.392422 0.115309,0.143206 0.344067,0.143206 0.08741,0 0.165524,-0.01488 0.07811,-0.01488 0.152505,-0.0372 v 0.145066 q -0.07439,0.0279 -0.154365,0.04092 -0.07811,0.01302 -0.187842,0.01302 -0.20272,0 -0.338487,-0.08369 -0.135767,-0.08369 -0.20458,-0.238057 -0.06695,-0.154365 -0.06695,-0.362665 0,-0.20086 0.07253,-0.353366 0.07439,-0.154365 0.217599,-0.239916 0.143206,-0.08741 0.347786,-0.08741 0.21016,0 0.366385,0.07811 l -0.06695,0.141346 q -0.06137,-0.0279 -0.137626,-0.05022 -0.07439,-0.02232 -0.163665,-0.02232 z m 2.025345,-0.128328 -0.474254,1.327912 h -0.167384 l -0.474254,-1.327912 h 0.174823 l 0.299431,0.851798 q 0.02976,0.08183 0.05021,0.154365 0.02046,0.07067 0.03348,0.135767 0.01302,-0.06509 0.03348,-0.137627 0.02046,-0.07253 0.05022,-0.156225 l 0.297571,-0.848078 z m 0.546788,0 q 0.247356,0 0.364525,0.09485 0.119028,0.09299 0.119028,0.282693 0,0.10601 -0.03906,0.176683 -0.03906,0.07067 -0.10043,0.113449 -0.05951,0.04092 -0.126468,0.06509 L 67.24052,30.80098 H 67.045243 L 66.723495,30.252337 H 66.4594 v 0.548647 h -0.167384 v -1.327912 z m -0.0093,0.145066 H 66.4594 v 0.492853 h 0.199001 q 0.161804,0 0.236197,-0.06323 0.07439,-0.06509 0.07439,-0.189702 0,-0.130187 -0.07811,-0.184122 -0.07811,-0.0558 -0.241776,-0.0558 z m 1.54179,1.182846 h -0.742068 v -1.327912 h 0.742068 v 0.146926 h -0.574684 v 0.41474 h 0.541207 v 0.145066 h -0.541207 v 0.474254 h 0.574684 z m 0.459375,0 h -0.167384 v -1.327912 h 0.742068 v 0.146926 h -0.574684 v 0.470535 h 0.539348 v 0.146925 h -0.539348 z m -7.31281,-3.652687 q 0.247356,0 0.364524,0.09485 0.119029,0.09299 0.119029,0.282693 0,0.10601 -0.03906,0.176683 -0.03906,0.07067 -0.100431,0.113449 -0.05951,0.04092 -0.126467,0.06509 l 0.364524,0.595143 h -0.195281 l -0.321749,-0.548647 h -0.264094 v 0.548647 h -0.167384 v -1.327912 z m -0.0093,0.145066 h -0.189701 v 0.492853 h 0.199001 q 0.161804,0 0.236197,-0.06323 0.07439,-0.06509 0.07439,-0.189702 0,-0.130187 -0.07811,-0.184122 -0.07811,-0.05579 -0.241777,-0.05579 z m 1.809605,0.714171 q 0,0.137627 -0.05579,0.249216 -0.05579,0.109729 -0.171103,0.174823 -0.113449,0.06323 -0.290132,0.06323 -0.247356,0 -0.377544,-0.133907 -0.128327,-0.135767 -0.128327,-0.357085 v -0.855518 h 0.167384 v 0.861097 q 0,0.161804 0.08555,0.251076 0.08741,0.08927 0.262235,0.08927 0.180403,0 0.260375,-0.09485 0.08183,-0.09671 0.08183,-0.247356 v -0.859237 h 0.165524 z m 1.402306,0.468675 h -0.195281 l -0.710452,-1.102873 h -0.0074 q 0.0037,0.06509 0.0093,0.161804 0.0056,0.09671 0.0056,0.199001 v 0.742068 h -0.154365 v -1.327912 h 0.193421 l 0.708591,1.099154 h 0.0074 q -0.0019,-0.02976 -0.0056,-0.08927 -0.0019,-0.05952 -0.0056,-0.130188 -0.0019,-0.07067 -0.0019,-0.130187 v -0.749508 h 0.156225 z m -2.992452,-3.025927 h 0.459376 v 0.650937 q -0.10787,0.03534 -0.217599,0.05207 -0.10973,0.01674 -0.249216,0.01674 -0.20644,0 -0.347786,-0.08183 -0.141347,-0.08369 -0.21574,-0.236197 -0.07253,-0.154365 -0.07253,-0.364525 0,-0.2083 0.08183,-0.360805 0.08183,-0.152505 0.234337,-0.236197 0.154365,-0.08555 0.371964,-0.08555 0.111589,0 0.21016,0.02046 0.10043,0.02046 0.185982,0.05766 l -0.06323,0.145066 q -0.07067,-0.03162 -0.159945,-0.05394 -0.08741,-0.02232 -0.182262,-0.02232 -0.238057,0 -0.371964,0.143206 -0.132047,0.143206 -0.132047,0.392422 0,0.158085 0.05022,0.280833 0.05207,0.120888 0.161804,0.189702 0.109729,0.06695 0.288272,0.06695 0.08741,0 0.148786,-0.0093 0.06137,-0.0093 0.111589,-0.02232 v -0.394282 h -0.291992 z m 1.830064,0.701152 h -0.195281 l -0.710451,-1.102873 h -0.0074 q 0.0037,0.06509 0.0093,0.161804 0.0056,0.09671 0.0056,0.199001 v 0.742068 h -0.154365 v -1.327912 h 0.193421 l 0.708592,1.099154 h 0.0074 q -0.0019,-0.02976 -0.0056,-0.08927 -0.0019,-0.05951 -0.0056,-0.130188 -0.0019,-0.07067 -0.0019,-0.130187 v -0.749508 h 0.156225 z m 1.424623,-0.676975 q 0,0.336628 -0.184122,0.507731 -0.182263,0.169244 -0.509591,0.169244 h -0.370104 v -1.327912 h 0.40916 q 0.200861,0 0.347786,0.07439 0.146926,0.07439 0.226898,0.219459 0.07997,0.143206 0.07997,0.357085 z m -0.176683,0.0056 q 0,-0.265954 -0.132047,-0.388703 -0.130188,-0.124608 -0.370105,-0.124608 h -0.217599 v 1.0415 h 0.180403 q 0.539348,0 0.539348,-0.528189 z M 61.70756,22.809337 q 0,0.133907 -0.07439,0.21388 -0.07439,0.07811 -0.200861,0.104149 v 0.0074 q 0.159945,0.0186 0.238057,0.10043 0.07811,0.08183 0.07811,0.213879 0,0.115309 -0.05393,0.20644 -0.05394,0.08927 -0.167384,0.139487 -0.111589,0.05022 -0.288272,0.05022 -0.10415,0 -0.193421,-0.01674 -0.08927,-0.01488 -0.171104,-0.05579 v -0.152505 q 0.08369,0.04092 0.180403,0.06509 0.09671,0.02232 0.185982,0.02232 0.178543,0 0.256655,-0.06881 0.07997,-0.07067 0.07997,-0.193421 0,-0.124608 -0.09857,-0.178543 -0.09671,-0.05579 -0.273394,-0.05579 h -0.128327 v -0.139486 h 0.130187 q 0.163664,0 0.247356,-0.06881 0.08555,-0.06881 0.08555,-0.182263 0,-0.09671 -0.06509,-0.148785 -0.06509,-0.05393 -0.176683,-0.05393 -0.107869,0 -0.184122,0.03162 -0.07625,0.03162 -0.150645,0.07997 L 60.8818,22.617776 q 0.07067,-0.05579 0.174823,-0.09671 0.106009,-0.04092 0.239917,-0.04092 0.208299,0 0.30873,0.09299 0.10229,0.09299 0.10229,0.236197 z m 1.262818,-0.31059 -0.474254,1.327912 h -0.167383 l -0.474255,-1.327912 h 0.174824 l 0.299431,0.851798 q 0.02976,0.08183 0.05022,0.154365 0.02046,0.07067 0.03348,0.135767 0.01302,-0.06509 0.03348,-0.137627 0.02046,-0.07253 0.05022,-0.156225 l 0.297572,-0.848078 z m 0.916893,0.31059 q 0,0.133907 -0.07439,0.21388 -0.07439,0.07811 -0.200861,0.104149 v 0.0074 q 0.159945,0.0186 0.238057,0.10043 0.07811,0.08183 0.07811,0.213879 0,0.115309 -0.05394,0.20644 -0.05393,0.08927 -0.167384,0.139487 -0.111589,0.05022 -0.288272,0.05022 -0.10415,0 -0.193421,-0.01674 -0.08927,-0.01488 -0.171104,-0.05579 v -0.152505 q 0.08369,0.04092 0.180403,0.06509 0.09671,0.02232 0.185982,0.02232 0.178543,0 0.256655,-0.06881 0.07997,-0.07067 0.07997,-0.193421 0,-0.124608 -0.09857,-0.178543 -0.09671,-0.05579 -0.273394,-0.05579 h -0.128327 v -0.139486 h 0.130187 q 0.163664,0 0.247356,-0.06881 0.08555,-0.06881 0.08555,-0.182263 0,-0.09671 -0.06509,-0.148785 -0.06509,-0.05393 -0.176683,-0.05393 -0.107869,0 -0.184122,0.03162 -0.07625,0.03162 -0.150645,0.07997 l -0.08183,-0.111589 q 0.07067,-0.05579 0.174823,-0.09671 0.106009,-0.04092 0.239916,-0.04092 0.2083,0 0.308731,0.09299 0.10229,0.09299 0.10229,0.236197 z m 1.55295,1.017322 h -0.742068 v -1.327912 h 0.742068 v 0.146926 h -0.574684 v 0.41474 h 0.541208 v 0.145066 h -0.541208 v 0.474254 h 0.574684 z m 1.34465,0 H 66.58959 l -0.710451,-1.102873 h -0.0074 q 0.0037,0.06509 0.0093,0.161804 0.0056,0.09671 0.0056,0.199001 v 0.742068 h -0.154365 v -1.327912 h 0.193421 l 0.708592,1.099154 h 0.0074 q -0.0019,-0.02976 -0.0056,-0.08927 -0.0019,-0.05952 -0.0056,-0.130188 -0.0019,-0.07067 -0.0019,-0.130187 v -0.749508 h 0.156225 z M 61.70756,20.484562 q 0,0.133907 -0.07439,0.21388 -0.07439,0.07811 -0.200861,0.104149 v 0.0074 q 0.159945,0.0186 0.238057,0.10043 0.07811,0.08183 0.07811,0.213879 0,0.115309 -0.05393,0.20644 -0.05394,0.08927 -0.167384,0.139487 -0.111589,0.05022 -0.288272,0.05022 -0.10415,0 -0.193421,-0.01674 -0.08927,-0.01488 -0.171104,-0.05579 v -0.152505 q 0.08369,0.04092 0.180403,0.06509 0.09671,0.02232 0.185982,0.02232 0.178543,0 0.256655,-0.06881 0.07997,-0.07067 0.07997,-0.193421 0,-0.124608 -0.09857,-0.178543 -0.09671,-0.05579 -0.273394,-0.05579 h -0.128327 v -0.139486 h 0.130187 q 0.163664,0 0.247356,-0.06881 0.08555,-0.06881 0.08555,-0.182263 0,-0.09671 -0.06509,-0.148785 -0.06509,-0.05393 -0.176683,-0.05393 -0.107869,0 -0.184122,0.03162 -0.07625,0.03162 -0.150645,0.07997 L 60.8818,20.293001 q 0.07067,-0.05579 0.174823,-0.09671 0.106009,-0.04092 0.239917,-0.04092 0.208299,0 0.30873,0.09299 0.10229,0.09299 0.10229,0.236197 z m 1.262818,-0.31059 -0.474254,1.327912 h -0.167383 l -0.474255,-1.327912 h 0.174824 l 0.299431,0.851798 q 0.02976,0.08183 0.05022,0.154365 0.02046,0.07067 0.03348,0.135767 0.01302,-0.06509 0.03348,-0.137627 0.02046,-0.07253 0.05022,-0.156225 l 0.297572,-0.848078 z m 0.916893,0.31059 q 0,0.133907 -0.07439,0.21388 -0.07439,0.07811 -0.200861,0.104149 v 0.0074 q 0.159945,0.0186 0.238057,0.10043 0.07811,0.08183 0.07811,0.213879 0,0.115309 -0.05394,0.20644 -0.05393,0.08927 -0.167384,0.139487 -0.111589,0.05022 -0.288272,0.05022 -0.10415,0 -0.193421,-0.01674 -0.08927,-0.01488 -0.171104,-0.05579 v -0.152505 q 0.08369,0.04092 0.180403,0.06509 0.09671,0.02232 0.185982,0.02232 0.178543,0 0.256655,-0.06881 0.07997,-0.07067 0.07997,-0.193421 0,-0.124608 -0.09857,-0.178543 -0.09671,-0.05579 -0.273394,-0.05579 h -0.128327 v -0.139486 h 0.130187 q 0.163664,0 0.247356,-0.06881 0.08555,-0.06881 0.08555,-0.182263 0,-0.09671 -0.06509,-0.148785 -0.06509,-0.05393 -0.176683,-0.05393 -0.107869,0 -0.184122,0.03162 -0.07625,0.03162 -0.150645,0.07997 l -0.08183,-0.111589 q 0.07067,-0.05579 0.174823,-0.09671 0.106009,-0.04092 0.239916,-0.04092 0.2083,0 0.308731,0.09299 0.10229,0.09299 0.10229,0.236197 z m -1.980711,-2.635365 -0.474254,1.327912 h -0.167383 l -0.474255,-1.327912 h 0.174824 l 0.299431,0.851798 q 0.02976,0.08183 0.05021,0.154365 0.02046,0.07067 0.03348,0.135767 0.01302,-0.06509 0.03348,-0.137627 0.02046,-0.07253 0.05021,-0.156225 l 0.297572,-0.848078 z m 0.559807,0 q 0.249216,0 0.375684,0.07439 0.128327,0.07253 0.128327,0.254795 0,0.117169 -0.06509,0.195282 -0.06509,0.07625 -0.187842,0.09857 v 0.0093 q 0.08369,0.01302 0.150645,0.04836 0.06881,0.03534 0.10787,0.100431 0.03906,0.06509 0.03906,0.169243 0,0.180403 -0.124608,0.278973 -0.122748,0.09857 -0.336627,0.09857 h -0.466815 v -1.327912 z m 0.03348,0.565386 q 0.171103,0 0.234337,-0.05393 0.06323,-0.05579 0.06323,-0.163664 0,-0.10973 -0.07811,-0.156225 -0.07625,-0.04836 -0.245497,-0.04836 h -0.219458 v 0.42218 z m -0.245496,0.139486 v 0.481693 h 0.267814 q 0.176683,0 0.245496,-0.06881 0.06881,-0.06881 0.06881,-0.180402 0,-0.10415 -0.07253,-0.167384 -0.07067,-0.06509 -0.254795,-0.06509 z m 2.051381,0.154365 q 0,0.137627 -0.0558,0.249216 -0.05579,0.109729 -0.171104,0.174823 -0.113449,0.06323 -0.290131,0.06323 -0.247357,0 -0.377544,-0.133907 -0.128327,-0.135767 -0.128327,-0.357086 v -0.855517 h 0.167383 v 0.861097 q 0,0.161804 0.08555,0.251076 0.08741,0.08927 0.262235,0.08927 0.180402,0 0.260374,-0.09485 0.08183,-0.09671 0.08183,-0.247356 v -0.859237 h 0.165524 z m 1.102874,0.113449 q 0,0.176683 -0.128327,0.275254 -0.128328,0.09857 -0.345927,0.09857 -0.111589,0 -0.20644,-0.01674 -0.09485,-0.01674 -0.158085,-0.0465 v -0.159944 q 0.06695,0.02976 0.165524,0.05393 0.100431,0.02418 0.206441,0.02418 0.148785,0 0.223178,-0.05765 0.07625,-0.05766 0.07625,-0.156225 0,-0.06509 -0.0279,-0.10973 -0.0279,-0.04463 -0.09671,-0.08183 -0.06695,-0.03906 -0.187842,-0.08183 -0.169244,-0.06137 -0.256655,-0.150645 -0.08555,-0.08927 -0.08555,-0.243637 0,-0.106009 0.05393,-0.180402 0.05393,-0.07625 0.148785,-0.117169 0.09671,-0.04092 0.221319,-0.04092 0.109729,0 0.20086,0.02046 0.09113,0.02046 0.165524,0.05393 l -0.05208,0.143206 q -0.06881,-0.02976 -0.150645,-0.05021 -0.07997,-0.02046 -0.167384,-0.02046 -0.124608,0 -0.187842,0.05393 -0.06323,0.05208 -0.06323,0.139486 0,0.06695 0.0279,0.111589 0.0279,0.04464 0.09113,0.07997 0.06323,0.03534 0.171103,0.07625 0.117169,0.04278 0.197141,0.09299 0.08183,0.04836 0.122748,0.117169 0.04278,0.06881 0.04278,0.172963 z" />
    </g>
    <rect
       style="fill:none;stroke:#000000;stroke-width:0.264583;stroke-opacity:1"
       id="rect64"
       width="7.6199999"
       height="81.279999"
       x="109.2014"
       y="23.880562" />
    <g
       id="g125"
       transform="translate(-17.15908,6.1272554)">
      <rect
         style="fill:#000000;fill-opacity:1;stroke:none;stroke-width:0.264999;stroke-dasharray:none;stroke-opacity:1"
         id="rect125"
         width="7.6199999"
         height="2.54"
         x="67.959076"
         y="26.892744" />
      <text
         xml:space="preserve"
         style="font-size:2.35951px;text-align:start;writing-mode:lr-tb;direction:ltr;text-anchor:start;fill:#ffffff;fill-opacity:1;stroke:none;stroke-width:0.196935;stroke-dasharray:none;stroke-opacity:1"
         x="67.883736"
         y="29.473825"
         id="text125"
         transform="scale(1.0169306,0.98335129)"><tspan
           sodipodi:role="line"
           id="tspan125"
           style="fill:#ffffff;fill-opacity:1;stroke-width:0.196935"
           x="67.883736"
           y="29.473825">GND</tspan></text>
    </g>
    <use
       x="0"
       y="0"
       xlink:href="#g125"
       id="use126"
       transform="translate(3.309327e-6,15.24)" />
    <use
       x="0"
       y="0"
       xlink:href="#use126"
       id="use127"
       transform="translate(-2.8610249e-6,10.16)" />
    <use
       x="0"
       y="0"
       xlink:href="#use127"
       id="use128"
       transform="translate(0.09563689,40.781321)" />
    <use
       x="0"
       y="0"
       xlink:href="#g125"
       id="use129"
       transform="translate(-22.859999,-5.0799989)" />
    <use
       x="0"
       y="0"
       xlink:href="#g125"
       id="use130"
       transform="translate(-22.859996,38.1)" />
  </g>
</svg>
